<?xml version="1.0" encoding="UTF-8"?>
<svg width="14px" height="22px" viewBox="0 0 14 22" version="1.1" xmlns="http://www.w3.org/2000/svg" xmlns:xlink="http://www.w3.org/1999/xlink">
    <title>90630E68-0373-400E-890B-0F3D394145AC</title>
    <g id="Homepage" stroke="none" stroke-width="1" fill="none" fill-rule="evenodd">
        <g transform="translate(-634.000000, -3321.000000)" fill="#BCBCBC" fill-rule="nonzero" id="Group-41" stroke="#BCBCBC" stroke-width="0.5">
            <g transform="translate(-28.000000, 1117.000000)">
                <g id="Group-39" transform="translate(188.000000, 1760.000000)">
                    <g id="Group-8" transform="translate(0.000000, 41.000000)">
                        <g id="Group-28" transform="translate(475.000000, 404.000000)">
                            <g id="banner_arrow" transform="translate(5.950594, 10.000000) scale(-1, 1) translate(-5.950594, -10.000000) ">
                                <path d="M10.909215,20 C10.6553336,20 10.4014522,19.9109101 10.2080659,19.7336394 L0.290823145,10.6428336 C-0.0969410483,10.2873831 -0.0969410483,9.71284417 0.290823145,9.35739367 L10.2080659,0.26658788 C10.5958301,-0.0888626266 11.2225999,-0.0888626266 11.6103641,0.26658788 C11.9981283,0.622038387 11.9981283,1.19657731 11.6103641,1.55202782 L2.39427034,10.0001136 L11.6103641,18.4481995 C11.9981283,18.80365 11.9981283,19.3781889 11.6103641,19.7336394 C11.4169778,19.9109101 11.1630964,20 10.909215,20" id="Profile_arrow_list" transform="translate(5.950594, 10.000000) rotate(-180.000000) translate(-5.950594, -10.000000) "></path>
                            </g>
                        </g>
                    </g>
                </g>
            </g>
        </g>
    </g>
</svg>