<?xml version="1.0" encoding="UTF-8"?>
<svg width="12px" height="7px" viewBox="0 0 12 7" version="1.1" xmlns="http://www.w3.org/2000/svg" xmlns:xlink="http://www.w3.org/1999/xlink">
    <title>46AD5167-B0DD-4AAC-A2CF-EC105C03B2A8</title>
    <g id="Employer-Dashboard" stroke="none" stroke-width="1" fill="none" fill-rule="evenodd">
        <g id="Employer-Dashboard-Profile-" transform="translate(-217.000000, -153.000000)" fill="#FFFFFF" fill-rule="nonzero" stroke="#FFFFFF" stroke-width="0.5">
            <g id="left-bar" transform="translate(0.000000, -94.000000)">
                <g id="Group" transform="translate(32.000000, 0.000000)">
                    <g id="profile" transform="translate(0.000000, 234.000000)">
                        <g id="Profile_arrow" transform="translate(190.772645, 16.954711) scale(-1, 1) rotate(90.000000) translate(-190.772645, -16.954711) translate(188.045289, 11.954711)">
                            <path d="M5.00005688,10 C4.88369456,10 4.76733224,9.95545506 4.67869689,9.8668197 L0.133293941,5.3214168 C-0.0444313138,5.14369155 -0.0444313138,4.85642208 0.133293941,4.67869683 L4.67869689,0.13329394 C4.85642214,-0.0444313133 5.14369161,-0.0444313133 5.32141686,0.13329394 C5.49914212,0.311019193 5.49914212,0.598288656 5.32141686,0.776013909 L1.09737391,5.00005682 L5.32141686,9.22409973 C5.49914212,9.40182499 5.49914212,9.68909444 5.32141686,9.8668197 C5.2327815,9.95545506 5.11641918,10 5.00005688,10" id="Profile_arrow_list" transform="translate(2.727355, 5.000000) rotate(-180.000000) translate(-2.727355, -5.000000) "></path>
                        </g>
                    </g>
                </g>
            </g>
        </g>
    </g>
</svg>