<?xml version="1.0" encoding="UTF-8"?>
<svg width="13px" height="22px" viewBox="0 0 13 22" version="1.1" xmlns="http://www.w3.org/2000/svg" xmlns:xlink="http://www.w3.org/1999/xlink">
    <title>3627E5B2-26A4-4A8A-86C0-EC46825B0417</title>
    <g id="Homepage" stroke="none" stroke-width="1" fill="none" fill-rule="evenodd">
        <g transform="translate(-793.000000, -3321.000000)" fill="#c90f22" fill-rule="nonzero" id="Group-41" stroke="#c90f22" stroke-width="0.5">
            <g transform="translate(-28.000000, 1117.000000)">
                <g id="Group-39" transform="translate(188.000000, 1760.000000)">
                    <g id="Group-8" transform="translate(0.000000, 41.000000)">
                        <g id="Group-28" transform="translate(475.000000, 404.000000)">
                            <g id="Profile_arrow" transform="translate(164.401187, 10.000000) scale(1, -1) translate(-164.401187, -10.000000) translate(158.901187, 0.000000)">
                                <path d="M10.0001138,20 C9.76738912,20 9.53466449,19.9109101 9.35739378,19.7336394 L0.266587883,10.6428336 C-0.0888626276,10.2873831 -0.0888626276,9.71284417 0.266587883,9.35739367 L9.35739378,0.26658788 C9.71284428,-0.0888626266 10.2873832,-0.0888626266 10.6428337,0.26658788 C10.9982842,0.622038387 10.9982842,1.19657731 10.6428337,1.55202782 L2.19474781,10.0001136 L10.6428337,18.4481995 C10.9982842,18.80365 10.9982842,19.3781889 10.6428337,19.7336394 C10.465563,19.9109101 10.2328384,20 10.0001138,20" id="Profile_arrow_list" transform="translate(5.454711, 10.000000) rotate(-180.000000) translate(-5.454711, -10.000000) "></path>
                            </g>
                        </g>
                    </g>
                </g>
            </g>
        </g>
    </g>
</svg>