<?xml version="1.0" encoding="UTF-8"?>
<svg width="36px" height="36px" viewBox="0 0 36 36" version="1.1" xmlns="http://www.w3.org/2000/svg" xmlns:xlink="http://www.w3.org/1999/xlink">
    <title>137437EB-6578-4E5A-9F8E-C4538AE8606F</title>
    <g id="Homepage" stroke="none" stroke-width="1" fill="none" fill-rule="evenodd">
        <g transform="translate(-159.000000, -5311.000000)" id="Group-41">
            <g transform="translate(-28.000000, 1117.000000)">
                <g id="Group-38" transform="translate(28.000000, 4009.000000)">
                    <g id="Contact" transform="translate(159.000000, 185.000000)">
                        <rect id="Rectangle" fill="#FFFFFF" x="0" y="0" width="36" height="36" rx="18"></rect>
                        <path d="M25.3376357,24.8719398 C26.1053946,24.0839767 26.1053946,23.0333593 25.3376357,22.2656004 L23.2364009,20.1643655 C22.8727256,19.7804861 22.4282336,19.5784443 21.9433333,19.5784443 C21.4786371,19.5784443 21.0341451,19.7804861 20.6502657,20.1643655 C19.9094457,21.0129412 19.505362,21.4170248 19.4380148,21.3766164 C19.3369939,21.3160039 19.235973,21.2755955 19.134952,21.214983 C18.9935228,21.1543704 18.8722977,21.0735537 18.7510726,21.0129412 C17.6196384,20.3057948 16.5892252,19.3561983 15.6194245,18.1641516 C15.1345241,17.5580261 14.8112572,17.0529216 14.5890112,16.5276129 C14.8920739,16.2447543 15.1951367,15.9416916 15.4779952,15.6588331 C15.5790161,15.5578122 15.7002412,15.4365871 15.8012621,15.3355662 C16.1851416,14.9516867 16.4073876,14.4869906 16.4073876,14.0222944 C16.4073876,13.5575982 16.2053457,13.1131062 15.8012621,12.7090226 L14.7708489,11.6584052 C14.6496238,11.5371801 14.5283987,11.415955 14.4273778,11.2947299 C14.2051318,11.0522797 13.9626816,10.8098295 13.7202314,10.5875835 C13.3565562,10.2239083 12.9120642,10.0218665 12.447368,10.0218665 C11.9826718,10.0218665 11.5381798,10.2239083 11.1543004,10.5875835 L9.84102859,11.9008553 C9.35612824,12.3857557 9.0732697,12.9716769 9.01265716,13.6586191 C8.93184043,14.7698491 9.25510733,15.8002623 9.49755751,16.4872045 C10.103683,18.1439474 11.0330753,19.6996694 12.4069596,21.3564122 C14.0839067,23.3566262 16.0841207,24.9123482 18.3671932,26.0235781 C19.235973,26.447866 20.4078155,26.9327663 21.7210873,27.013583 C21.801904,27.013583 21.8827207,27.013583 21.9635374,27.013583 C22.8323172,27.013583 23.579872,26.6903161 24.145589,26.0639865 C24.145589,26.0639865 24.1657932,26.0437823 24.1657932,26.0437823 C24.367835,25.8013321 24.590081,25.5790862 24.8325312,25.3568402 C25.0143688,25.2154109 25.1760023,25.0537774 25.3376357,24.8719398 Z M24.145589,24.6496938 C23.9031389,24.892144 23.6404845,25.1345942 23.4182385,25.4174527 C23.0343591,25.8417405 22.5696629,26.0235781 21.9837416,26.0235781 C21.9231291,26.0235781 21.8625165,26.0235781 21.801904,26.0235781 C20.6704698,25.9225572 19.6198524,25.4982694 18.8116851,25.11439 C16.6498377,24.0637725 14.7708489,22.5888673 13.1949227,20.7098784 C11.9018551,19.1541565 11.0330753,17.6994554 10.447154,16.1437334 C10.0834788,15.1941369 9.96225368,14.4465822 10.0228662,13.75964 C10.0632746,13.315148 10.2451122,12.9514728 10.5481749,12.6282059 L11.8412426,11.3351383 C12.0230802,11.1533006 12.225122,11.0522797 12.4271638,11.0522797 C12.669614,11.0522797 12.8716558,11.193709 13.0130851,11.3351383 C13.2555353,11.5573843 13.4575771,11.7796302 13.7000272,12.0220804 C13.8212523,12.1433055 13.9424774,12.2645306 14.0637025,12.3857557 L15.0941158,13.4161689 C15.2961576,13.6182108 15.3971785,13.8202526 15.3971785,14.0222944 C15.3971785,14.2243362 15.2961576,14.426378 15.0941158,14.6284198 C14.9930949,14.7294407 14.8718698,14.8506658 14.7708489,14.9516867 C14.447582,15.2749536 14.1445192,15.5780164 13.8212523,15.8810791 C13.8212523,15.8810791 13.8010482,15.9012833 13.8010482,15.9012833 C13.4777812,16.2245502 13.5383938,16.5478171 13.5990063,16.7498589 C13.5990063,16.7700631 13.5990063,16.7700631 13.6192105,16.7902672 C13.8818649,17.436801 14.2657443,18.0631307 14.8516656,18.7904812 C15.902283,20.0835488 17.013513,21.0937579 18.2257639,21.8615168 C18.3873973,21.9625377 18.5490308,22.0433544 18.6904601,22.1241711 C18.8318893,22.1847837 18.9531144,22.2656004 19.0743395,22.3262129 C19.0945437,22.3262129 19.0945437,22.3464171 19.1147479,22.3464171 C19.235973,22.4070297 19.357198,22.447438 19.4784231,22.447438 C19.7814858,22.447438 19.9835277,22.2453962 20.0441402,22.1847837 L21.357412,20.8715119 C21.4786371,20.7502868 21.7008831,20.5886533 21.9433333,20.5886533 C22.1857834,20.5886533 22.3676211,20.7502868 22.5090503,20.8715119 L24.6102852,22.9727467 C25.0951856,23.4576471 24.8729396,23.9021391 24.590081,24.1849976 C24.4688559,24.3466311 24.3072225,24.4880604 24.145589,24.6496938 Z M18.3267848,12.6686142 C18.3671932,12.3857557 18.6298475,12.2039181 18.912706,12.2645306 C20.1249569,12.4665724 21.2159827,13.0322895 22.0847625,13.9212735 C22.9535423,14.8102575 23.5192594,15.9012833 23.7415054,17.09333 C23.7819138,17.3761885 23.6000761,17.6388429 23.3374218,17.6792512 C23.3172176,17.6792512 23.2768092,17.6792512 23.2566051,17.6792512 C23.0141549,17.6792512 22.7919089,17.4974136 22.7515005,17.2549634 C22.5898671,16.2649585 22.1049667,15.3355662 21.3776162,14.6284198 C20.6502657,13.9010693 19.7410775,13.4363731 18.7510726,13.2545355 C18.4480099,13.2141271 18.2661722,12.9514728 18.3267848,12.6686142 Z M26.0043737,17.1135341 C25.701311,15.3355662 24.8527354,13.7192317 23.579872,12.4261641 C22.2868043,11.1330964 20.6704698,10.304725 18.8925019,10.0016623 C18.6096433,9.96125392 18.4278057,9.69859956 18.4884182,9.41574102 C18.5490308,9.13288248 18.791481,8.95104485 19.0743395,9.01165739 C21.0341451,9.33492429 22.8525214,10.2643166 24.2870183,11.6988135 C25.7215152,13.1333104 26.6711117,14.9516867 26.9943786,16.9316965 C27.034787,17.214555 26.8529493,17.4772094 26.590295,17.5176178 C26.5700908,17.5176178 26.5296824,17.5176178 26.5094783,17.5176178 C26.2670281,17.5378219 26.0447821,17.3559843 26.0043737,17.1135341 Z" id="Shape" stroke="#6D6E71" stroke-width="0.5" fill="#6D6E71" fill-rule="nonzero"></path>
                    </g>
                </g>
            </g>
        </g>
    </g>
</svg>