<?xml version="1.0" encoding="UTF-8"?>
<svg width="101px" height="50px" viewBox="0 0 101 50" version="1.1" xmlns="http://www.w3.org/2000/svg" xmlns:xlink="http://www.w3.org/1999/xlink">
    <title>73C3AA68-400F-4066-9D32-D11D58412B59</title>
    <g id="Homepage" stroke="none" stroke-width="1" fill="none" fill-rule="evenodd">
        <g transform="translate(-812.000000, -828.000000)" fill="#D01124" fill-rule="nonzero" id="Group-10">
            <g transform="translate(162.000000, 777.000000)">
                <g id="Group-4" transform="translate(570.000000, 0.000000)">
                    <g id="Group-8-Copy-3" transform="translate(67.000000, 48.000000)">
                        <g id="noun-goverment-4180594" transform="translate(14.000000, 4.000000)">
                            <path d="M16.1426455,39.7938512 C15.6884869,39.7938512 15.3200334,40.1623047 15.3200334,40.6168453 L15.3200334,42.2624809 C15.3200334,42.7166395 15.6884869,43.085093 16.1426455,43.085093 C16.5971861,43.085093 16.9656396,42.7166395 16.9656396,42.2624809 L16.9656396,40.6168453 C16.9656396,40.1623047 16.5971861,39.7938512 16.1426455,39.7938512 Z" id="Path"></path>
                            <path d="M34.8684723,39.7938512 C34.4139317,39.7938512 34.0454782,40.1623047 34.0454782,40.6168453 L34.0454782,42.2624809 C34.0454782,42.7166395 34.4139317,43.085093 34.8684723,43.085093 C35.3226309,43.085093 35.6910844,42.7166395 35.6910844,42.2624809 L35.6910844,40.6168453 C35.6910844,40.1623047 35.3226309,39.7938512 34.8684723,39.7938512 Z" id="Path"></path>
                            <path d="M16.1426455,31.1988554 C15.6884869,31.1988554 15.3200334,31.5673089 15.3200334,32.0214675 L15.3200334,33.6671031 C15.3200334,34.1216437 15.6884869,34.4897152 16.1426455,34.4897152 C16.5971861,34.4897152 16.9656396,34.1216437 16.9656396,33.6671031 L16.9656396,32.0214675 C16.9656396,31.803375 16.8787866,31.5940881 16.7245977,31.4398973 C16.5704069,31.2853245 16.36112,31.1988554 16.1426455,31.1988554 L16.1426455,31.1988554 Z" id="Path"></path>
                            <path d="M6.54367581,36.8436373 C6.99707041,36.8405764 7.36361393,36.4740377 7.36666992,36.0206431 L7.36666992,34.3750075 C7.36666992,33.9208489 6.99821641,33.5523954 6.54367581,33.5523954 C6.08951721,33.5523954 5.7210637,33.9208489 5.7210637,34.3750075 L5.7210637,36.0206431 C5.7210637,36.4751837 6.08951721,36.8436373 6.54367581,36.8436373 Z" id="Path"></path>
                            <path d="M6.54367581,43.0800291 C6.99821641,43.0800291 7.36666992,42.7115756 7.36666992,42.257035 L7.36666992,40.6113994 C7.36666992,40.1572408 6.99821641,39.7887873 6.54367581,39.7887873 C6.08951721,39.7887873 5.7210637,40.1572408 5.7210637,40.6113994 L5.7210637,42.257035 C5.7210637,42.7115756 6.08951721,43.0800291 6.54367581,43.0800291 Z" id="Path"></path>
                            <path d="M34.0457034,32.0216242 L34.0457034,33.6672598 C34.0457034,34.1218004 34.4141569,34.4898719 34.8686975,34.4898719 C35.3228561,34.4898719 35.6913097,34.1218004 35.6913097,33.6672598 L35.6913097,32.0216242 C35.6913097,31.5674656 35.3228561,31.1990121 34.8686975,31.1990121 C34.4141569,31.1990121 34.0457034,31.5674656 34.0457034,32.0216242 Z" id="Path"></path>
                            <path d="M20.8265509,31.1988554 C20.3723923,31.1988554 20.0039388,31.5673089 20.0039388,32.0214675 L20.0039388,33.6671031 C20.0039388,34.1216437 20.3723923,34.4897152 20.8265509,34.4897152 C21.2810915,34.4897152 21.649545,34.1216437 21.649545,33.6671031 L21.649545,32.0214675 C21.649545,31.803375 21.562692,31.5940881 21.4085031,31.4398973 C21.2543123,31.2853245 21.0450254,31.1988554 20.8265509,31.1988554 L20.8265509,31.1988554 Z" id="Path"></path>
                            <path d="M25.5055589,31.1988554 C25.0510183,31.1988554 24.6829468,31.5673089 24.6829468,32.0214675 L24.6829468,33.6671031 C24.6829468,34.1216437 25.0510183,34.4897152 25.5055589,34.4897152 C25.9600995,34.4897152 26.328171,34.1216437 26.328171,33.6671031 L26.328171,32.0214675 C26.328171,31.803375 26.2417009,31.5940881 26.0875111,31.4398973 C25.9329383,31.2853245 25.7236514,31.1988554 25.5055589,31.1988554 Z" id="Path"></path>
                            <path d="M30.1845669,31.1988554 C29.7300263,31.1988554 29.3615727,31.5673089 29.3615727,32.0214675 L29.3615727,33.6671031 C29.3615727,34.1216437 29.7300263,34.4897152 30.1845669,34.4897152 C30.6387255,34.4897152 31.007179,34.1216437 31.007179,33.6671031 L31.007179,32.0214675 C31.007179,31.803375 30.9203259,31.5940881 30.7661371,31.4398973 C30.6119463,31.2853245 30.4026594,31.1988554 30.1845669,31.1988554 Z" id="Path"></path>
                            <path d="M44.4674419,36.8436373 C44.9216005,36.8436373 45.2900541,36.4751837 45.2900541,36.0206431 L45.2900541,34.3750075 C45.2900541,33.9208489 44.9216005,33.5523954 44.4674419,33.5523954 C44.0129013,33.5523954 43.6444478,33.9208489 43.6444478,34.3750075 L43.6444478,36.0206431 C43.6475087,36.4740377 44.0140473,36.8405813 44.4674419,36.8436373 Z" id="Path"></path>
                            <path d="M44.4674419,43.0800291 C44.9216005,43.0800291 45.2900541,42.7115756 45.2900541,42.257035 L45.2900541,40.6113994 C45.2900541,40.1572408 44.9216005,39.7887873 44.4674419,39.7887873 C44.0129013,39.7887873 43.6444478,40.1572408 43.6444478,40.6113994 L43.6444478,42.257035 C43.6444478,42.7115756 44.0129013,43.0800291 44.4674419,43.0800291 Z" id="Path"></path>
                            <path d="M50.1886238,46.3544531 L49.7497648,46.3544531 L49.7497648,30.1517841 C49.7497648,29.6972435 49.3813112,29.32879 48.9271526,29.32879 L40.8640181,29.32879 L40.8640181,26.7729174 C40.8640181,26.3183768 40.4955646,25.9499233 40.041024,25.9499233 L35.2526074,25.9499233 L35.2526074,19.0663846 L36.0645137,19.0663846 C36.5186723,19.0663846 36.8871258,18.6979311 36.8871258,18.2433905 C36.8871258,17.7892319 36.5186723,17.4207784 36.0645137,17.4207784 L35.230804,17.4207784 C35.1125799,14.9949816 34.1162461,12.694755 32.4281987,10.9493097 C30.7397595,9.20347262 28.4746965,8.13103263 26.0542869,7.93160914 L26.0542869,4.9365347 L30.8591589,4.9365347 C31.3136995,4.9365347 31.681771,4.56808119 31.681771,4.11392259 L31.681771,0.822651376 C31.681771,0.368110777 31.3136995,1.93771702e-05 30.8591589,1.93771702e-05 L25.2371012,1.93771702e-05 C25.0167167,-0.00149108639 24.8051279,0.0853613708 24.6497911,0.240699146 C24.4940723,0.396417942 24.4072115,0.60800666 24.4087493,0.828009168 L24.4087493,7.95877031 C21.9945104,8.16117144 19.7355203,9.23092764 18.0493339,10.9703001 C16.3631475,12.7100644 15.3641691,15.0014756 15.2375214,17.4207098 L14.9467314,17.4207098 C14.4925728,17.4207098 14.1241193,17.7891633 14.1241193,18.2433219 C14.1241193,18.6978625 14.4925728,19.066316 14.9467314,19.066316 L15.2153263,19.066316 L15.2157088,25.9498547 L10.9974514,25.9498547 C10.5432928,25.9498547 10.1748393,26.3183082 10.1748393,26.7728488 L10.1748393,29.3291132 L2.08408324,29.3287306 C1.62992464,29.3287306 1.26147113,29.6971842 1.26147113,30.1517248 L1.26147113,46.3543938 L0.822612112,46.3543938 C0.368071513,46.3543938 0,46.7228473 0,47.1773879 C0,47.6315465 0.368071513,48 0.822612112,48 L50.1887419,48 C50.6432825,48 51.011354,47.6315465 51.011354,47.1773879 C51.011354,46.7228473 50.6432825,46.3543938 50.1887419,46.3543938 L50.1886238,46.3544531 Z M26.0540714,1.65068005 L30.0362726,1.65068005 L30.0362726,3.29631566 L26.0540714,3.29631566 L26.0540714,1.65068005 Z M10.1472074,46.3544531 L2.90664579,46.3544531 L2.90664579,30.9961016 L10.1743392,30.9961016 L10.1472074,46.3544531 Z M25.2362,9.53260954 C27.3707954,9.53567044 29.4235057,10.3540757 30.9750126,11.8199069 C32.5265196,13.2861005 33.4600683,15.2890529 33.5844631,17.4202201 L16.8822559,17.4202201 C17.0077477,15.2886611 17.9424523,13.2857087 19.4951346,11.8195151 C21.0474252,10.3537132 23.1008211,9.5357439 25.2362,9.53260954 Z M33.6062078,19.0657577 L33.6062078,25.9492964 L30.6555041,25.9492964 L30.6555041,19.0657577 L33.6062078,19.0657577 Z M29.0094767,19.0657577 L29.0098592,25.9492964 L26.0533766,25.9492964 L26.0533766,19.0657577 L29.0094767,19.0657577 Z M24.4078481,19.0657577 L24.4078481,25.9492964 L21.4567526,25.9492964 L21.4567526,19.0657577 L24.4078481,19.0657577 Z M16.8600216,19.0657577 L19.811117,19.0657577 L19.811117,25.9492964 L16.8600216,25.9492964 L16.8600216,19.0657577 Z M24.6821044,46.3542572 L21.7914433,46.3542572 L21.7914433,39.3609181 L24.6821044,39.3609181 L24.6821044,46.3542572 Z M29.2183032,46.3542572 L26.3272503,46.3542572 L26.3272503,39.3609181 L29.2179114,39.3609181 L29.2183032,46.3542572 Z M39.1904573,46.3542572 L30.863645,46.3542572 L30.863645,38.527179 C30.863645,38.0726384 30.4955735,37.7041849 30.0410329,37.7041849 L20.9685373,37.7041849 C20.5139967,37.7041849 20.1459252,38.0726384 20.1459252,38.527179 L20.1459252,46.3542572 L11.8195046,46.3542572 L11.8195046,27.5951279 L39.2177067,27.5951279 L39.1904573,46.3542572 Z M48.1033945,30.9959057 L48.1037863,46.3542572 L40.8632247,46.3542572 L40.8632247,30.9959057 L48.1033945,30.9959057 Z M71.108644,30.38 C72.238644,30.38 72.238644,30.38 73.213644,30.825 C74.188644,31.27 74.188644,31.27 74.903644,32.18 C75.618644,33.09 75.618644,33.09 76.023644,34.48 C76.428644,35.87 76.428644,35.87 76.428644,37.77 C76.428644,39.66 76.428644,39.66 76.023644,41.055 C75.618644,42.45 75.618644,42.45 74.903644,43.36 C74.188644,44.27 74.188644,44.27 73.213644,44.715 C72.238644,45.16 72.238644,45.16 71.108644,45.16 C69.978644,45.16 69.978644,45.16 69.013644,44.715 C68.048644,44.27 68.048644,44.27 67.338644,43.36 C66.628644,42.45 66.628644,42.45 66.228644,41.055 C65.828644,39.66 65.828644,39.66 65.828644,37.77 C65.828644,35.87 65.828644,35.87 66.228644,34.48 C66.628644,33.09 66.628644,33.09 67.338644,32.18 C68.048644,31.27 68.048644,31.27 69.013644,30.825 C69.978644,30.38 69.978644,30.38 71.108644,30.38 Z M82.708644,30.38 C83.838644,30.38 83.838644,30.38 84.813644,30.825 C85.788644,31.27 85.788644,31.27 86.503644,32.18 C87.218644,33.09 87.218644,33.09 87.623644,34.48 C88.028644,35.87 88.028644,35.87 88.028644,37.77 C88.028644,39.66 88.028644,39.66 87.623644,41.055 C87.218644,42.45 87.218644,42.45 86.503644,43.36 C85.788644,44.27 85.788644,44.27 84.813644,44.715 C83.838644,45.16 83.838644,45.16 82.708644,45.16 C81.578644,45.16 81.578644,45.16 80.613644,44.715 C79.648644,44.27 79.648644,44.27 78.938644,43.36 C78.228644,42.45 78.228644,42.45 77.828644,41.055 C77.428644,39.66 77.428644,39.66 77.428644,37.77 C77.428644,35.87 77.428644,35.87 77.828644,34.48 C78.228644,33.09 78.228644,33.09 78.938644,32.18 C79.648644,31.27 79.648644,31.27 80.613644,30.825 C81.578644,30.38 81.578644,30.38 82.708644,30.38 Z M59.668644,30.38 C60.668644,30.38 60.668644,30.38 61.498644,30.675 C62.328644,30.97 62.328644,30.97 62.918644,31.51 C63.508644,32.05 63.508644,32.05 63.838644,32.81 C64.168644,33.57 64.168644,33.57 64.168644,34.5 C64.168644,35.3 64.168644,35.3 63.933644,35.98 C63.698644,36.66 63.698644,36.66 63.303644,37.28 C62.908644,37.9 62.908644,37.9 62.378644,38.48 C61.848644,39.06 61.848644,39.06 61.268644,39.66 L61.268644,39.66 L58.008644,42.99 L58.3214218,42.9038889 C58.633644,42.825 58.633644,42.825 58.943644,42.775 C59.408644,42.7 59.408644,42.7 59.828644,42.7 L59.828644,42.7 L63.538644,42.7 L63.667394,42.70625 C63.9778107,42.7375 63.9778107,42.7375 64.173644,42.925 C64.408644,43.15 64.408644,43.15 64.408644,43.52 L64.408644,43.52 L64.408644,45 L54.488644,45 L54.488644,44.18 L54.4952065,44.0534375 C54.514894,43.86125 54.514894,43.86125 54.593644,43.655 C54.698644,43.38 54.698644,43.38 54.928644,43.16 L54.928644,43.16 L59.318644,38.76 L59.5864565,38.483125 C59.977394,38.0725 59.977394,38.0725 60.303644,37.69 C60.738644,37.18 60.738644,37.18 61.028644,36.68 C61.318644,36.18 61.318644,36.18 61.473644,35.665 C61.628644,35.15 61.628644,35.15 61.628644,34.58 C61.628644,34.06 61.628644,34.06 61.478644,33.665 C61.328644,33.27 61.328644,33.27 61.053644,33 C60.778644,32.73 60.778644,32.73 60.393644,32.595 C60.008644,32.46 60.008644,32.46 59.528644,32.46 C59.088644,32.46 59.088644,32.46 58.713644,32.585 C58.338644,32.71 58.338644,32.71 58.048644,32.935 C57.758644,33.16 57.758644,33.16 57.558644,33.46 C57.358644,33.76 57.358644,33.76 57.258644,34.12 C57.088644,34.58 57.088644,34.58 56.818644,34.73 C56.548644,34.88 56.548644,34.88 56.038644,34.8 L56.038644,34.8 L54.738644,34.57 L54.7872154,34.2780612 C54.9500726,33.4178571 54.9500726,33.4178571 55.318644,32.745 C55.748644,31.96 55.748644,31.96 56.393644,31.435 C57.038644,30.91 57.038644,30.91 57.873644,30.645 C58.708644,30.38 58.708644,30.38 59.668644,30.38 Z M95.328644,33.27 L95.328644,37.37 L99.208644,37.37 L99.208644,39.2 L95.328644,39.2 L95.328644,43.32 L93.318644,43.32 L93.318644,39.2 L89.458644,39.2 L89.458644,37.37 L93.318644,37.37 L93.318644,33.27 L95.328644,33.27 Z M71.108644,32.43 C70.578644,32.43 70.578644,32.43 70.083644,32.675 C69.588644,32.92 69.588644,32.92 69.208644,33.53 C68.828644,34.14 68.828644,34.14 68.603644,35.17 C68.378644,36.2 68.378644,36.2 68.378644,37.77 C68.378644,39.34 68.378644,39.34 68.603644,40.37 C68.828644,41.4 68.828644,41.4 69.208644,42.01 C69.588644,42.62 69.588644,42.62 70.083644,42.865 C70.578644,43.11 70.578644,43.11 71.108644,43.11 C71.648644,43.11 71.648644,43.11 72.148644,42.865 C72.648644,42.62 72.648644,42.62 73.033644,42.01 C73.418644,41.4 73.418644,41.4 73.648644,40.37 C73.878644,39.34 73.878644,39.34 73.878644,37.77 C73.878644,36.2 73.878644,36.2 73.648644,35.17 C73.418644,34.14 73.418644,34.14 73.033644,33.53 C72.648644,32.92 72.648644,32.92 72.148644,32.675 C71.648644,32.43 71.648644,32.43 71.108644,32.43 Z M82.708644,32.43 C82.178644,32.43 82.178644,32.43 81.683644,32.675 C81.188644,32.92 81.188644,32.92 80.808644,33.53 C80.428644,34.14 80.428644,34.14 80.203644,35.17 C79.978644,36.2 79.978644,36.2 79.978644,37.77 C79.978644,39.34 79.978644,39.34 80.203644,40.37 C80.428644,41.4 80.428644,41.4 80.808644,42.01 C81.188644,42.62 81.188644,42.62 81.683644,42.865 C82.178644,43.11 82.178644,43.11 82.708644,43.11 C83.248644,43.11 83.248644,43.11 83.748644,42.865 C84.248644,42.62 84.248644,42.62 84.633644,42.01 C85.018644,41.4 85.018644,41.4 85.248644,40.37 C85.478644,39.34 85.478644,39.34 85.478644,37.77 C85.478644,36.2 85.478644,36.2 85.248644,35.17 C85.018644,34.14 85.018644,34.14 84.633644,33.53 C84.248644,32.92 84.248644,32.92 83.748644,32.675 C83.248644,32.43 83.248644,32.43 82.708644,32.43 Z" id="Shape" stroke="#D01124" stroke-width="0.3"></path>
                        </g>
                    </g>
                </g>
            </g>
        </g>
    </g>
</svg>