<?xml version="1.0" encoding="UTF-8"?>
<svg width="48px" height="42px" viewBox="0 0 48 42" version="1.1" xmlns="http://www.w3.org/2000/svg" xmlns:xlink="http://www.w3.org/1999/xlink">
    <title>49D813D6-9AF3-4888-BAA2-1E88992C072B@2x</title>
    <g id="Homepage" stroke="none" stroke-width="1" fill="none" fill-rule="evenodd">
        <g transform="translate(-271.000000, -829.000000)" fill="#D01124" fill-rule="nonzero" id="Group-10">
            <g transform="translate(162.000000, 777.000000)">
                <g id="Group-8-Copy" transform="translate(41.000000, 52.000000)">
                    <g id="Group" transform="translate(68.000000, 0.000000)">
                        <path d="M18.2857143,38.8571429 L18.2857143,30.8571429 C18.2857143,30.2259602 18.7973889,29.7142857 19.4285714,29.7142857 L28.5714286,29.7142857 C29.2026112,29.7142857 29.7142857,30.2259602 29.7142857,30.8571429 L29.7142857,38.8571429 L34.2857143,38.8571429 L34.2857143,6.85714286 L13.7142857,6.85714286 L13.7142857,38.8571429 L18.2857143,38.8571429 Z M4.57142857,38.8571429 L4.57142857,14.8571429 C4.57142857,14.2259603 5.08310315,13.7142857 5.71428571,13.7142857 L11.4285714,13.7142857 L11.4285714,5.71428571 C11.4285714,5.08310315 11.940246,4.57142857 12.5714286,4.57142857 L16,4.57142857 L16,1.14285714 C16,0.511674583 16.5116746,0 17.1428571,0 L30.8571429,0 C31.4883255,0 32,0.511674583 32,1.14285714 L32,4.57142857 L35.4285714,4.57142857 C36.0597541,4.57142857 36.5714286,5.08310315 36.5714286,5.71428571 L36.5714286,13.7142857 L42.2857143,13.7142857 C42.9168969,13.7142857 43.4285714,14.2259603 43.4285714,14.8571429 L43.4285714,38.8571429 L46.8571429,38.8571429 C47.4883255,38.8571429 48,39.3688174 48,40 C48,40.6311826 47.4883255,41.1428571 46.8571429,41.1428571 L1.14285714,41.1428571 C0.511674583,41.1428571 0,40.6311826 0,40 C0,39.3688174 0.511674583,38.8571429 1.14285714,38.8571429 L4.57142857,38.8571429 Z M36.5714286,38.8571429 L41.1428571,38.8571429 L41.1428571,16 L36.5714286,16 L36.5714286,38.8571429 Z M6.85714286,38.8571429 L11.4285714,38.8571429 L11.4285714,16 L6.85714286,16 L6.85714286,38.8571429 Z M18.2857143,4.57142857 L29.7142857,4.57142857 L29.7142857,2.28571429 L18.2857143,2.28571429 L18.2857143,4.57142857 Z M27.4285714,13.7142857 L30.8571429,13.7142857 C31.4883255,13.7142857 32,14.2259603 32,14.8571429 L32,19.4285714 C32,20.0597541 31.4883255,20.5714286 30.8571429,20.5714286 L27.4285714,20.5714286 L27.4285714,24 C27.4285714,24.6311826 26.9168969,25.1428571 26.2857143,25.1428571 L21.7142857,25.1428571 C21.0831031,25.1428571 20.5714286,24.6311826 20.5714286,24 L20.5714286,20.5714286 L17.1428571,20.5714286 C16.5116746,20.5714286 16,20.0597541 16,19.4285714 L16,14.8571429 C16,14.2259603 16.5116746,13.7142857 17.1428571,13.7142857 L20.5714286,13.7142857 L20.5714286,10.2857143 C20.5714286,9.65453173 21.0831031,9.14285714 21.7142857,9.14285714 L26.2857143,9.14285714 C26.9168969,9.14285714 27.4285714,9.65453173 27.4285714,10.2857143 L27.4285714,13.7142857 Z M29.7142857,16 L26.2857143,16 C25.6545317,16 25.1428571,15.4883254 25.1428571,14.8571429 L25.1428571,11.4285714 L22.8571429,11.4285714 L22.8571429,14.8571429 C22.8571429,15.4883254 22.3454683,16 21.7142857,16 L18.2857143,16 L18.2857143,18.2857143 L21.7142857,18.2857143 C22.3454683,18.2857143 22.8571429,18.7973888 22.8571429,19.4285714 L22.8571429,22.8571429 L25.1428571,22.8571429 L25.1428571,19.4285714 C25.1428571,18.7973888 25.6545317,18.2857143 26.2857143,18.2857143 L29.7142857,18.2857143 L29.7142857,16 Z M20.5714286,38.8571429 L27.4285714,38.8571429 L27.4285714,32 L20.5714286,32 L20.5714286,38.8571429 Z" id="Shape"></path>
                    </g>
                </g>
            </g>
        </g>
    </g>
</svg>