<?xml version="1.0" encoding="UTF-8"?>
<svg width="49px" height="50px" viewBox="0 0 49 50" version="1.1" xmlns="http://www.w3.org/2000/svg" xmlns:xlink="http://www.w3.org/1999/xlink">
    <title>E3AE8200-2578-4528-8563-B763EF02E37C</title>
    <g id="Homepage" stroke="none" stroke-width="1" fill="none" fill-rule="evenodd">
        <g transform="translate(-553.000000, -828.000000)" fill="#D01124" fill-rule="nonzero" id="Group-10">
            <g transform="translate(162.000000, 777.000000)">
                <g id="Group-6" transform="translate(285.000000, 0.000000)">
                    <g id="Group-8-Copy-4" transform="translate(69.000000, 51.000000)">
                        <g id="noun-nurse-3480069" transform="translate(37.500000, 1.000000)">
                            <path d="M20.8001795,19.9999737 C20.8001795,20.441757 20.441962,20.7999745 20.0001788,20.7999745 C19.5583955,20.7999745 19.200178,20.441757 19.200178,19.9999737 C19.200178,19.5581905 19.5583955,19.199973 20.0001788,19.199973 C20.441962,19.199973 20.8001795,19.5581905 20.8001795,19.9999737" id="Path"></path>
                            <path d="M12.800172,19.9999737 C12.800172,20.441757 12.4419545,20.7999745 12.0001713,20.7999745 C11.558388,20.7999745 11.2001705,20.441757 11.2001705,19.9999737 C11.2001705,19.5581905 11.558388,19.199973 12.0001713,19.199973 C12.4419545,19.199973 12.800172,19.5581905 12.800172,19.9999737" id="Path"></path>
                            <path d="M15.2001743,22.399976 L16.8001758,22.399976 C17.241959,22.399976 17.6001765,22.0417585 17.6001765,21.5999752 C17.6001765,21.158192 17.241959,20.7999745 16.8001758,20.7999745 L16.000175,20.7999745 L16.000175,19.9999737 C16.000175,19.5581905 15.6419575,19.199973 15.2001743,19.199973 C14.758391,19.199973 14.4001735,19.5581905 14.4001735,19.9999737 L14.4001735,21.5999752 C14.4001735,21.8121171 14.4844598,22.0156922 14.6344594,22.1656901 C14.7844591,22.3156879 14.9880323,22.399976 15.2001743,22.399976 Z" id="Path"></path>
                            <path d="M20.3082933,22.4612332 C20.1122246,22.379805 19.8918632,22.37909 19.6957945,22.4601617 C19.4997257,22.5408759 19.3436479,22.6962305 19.2618649,22.8919519 C19.2540078,22.9112378 18.439007,24.7997936 16.0004219,24.7997936 C13.6047168,24.7997936 12.7757331,22.9758834 12.7368759,22.887289 C12.5625946,22.484436 12.0968753,22.2972907 11.6925778,22.467284 C11.2882894,22.6372865 11.0961521,23.1012138 11.2618666,23.507285 C11.3111521,23.6255023 12.5072163,26.3998134 16.000431,26.3998134 C19.4936457,26.3998134 20.6897154,23.6255023 20.7389955,23.5076507 C20.8204236,23.311582 20.8211386,23.0912206 20.7400669,22.8951519 C20.6593528,22.6990831 20.5039981,22.5430052 20.3082768,22.4612223 L20.3082933,22.4612332 Z" id="Path"></path>
                            <path d="M8.8001645,41.599994 L5.60016525,41.599994 C5.15838198,41.599994 4.8001645,41.9582115 4.8001645,42.3999947 C4.8001645,42.841778 5.15838198,43.1999955 5.60016525,43.1999955 L8.8001645,43.1999955 C9.24195153,43.1999955 9.60016901,42.841778 9.60016901,42.3999947 C9.60016901,41.9582115 9.24195153,41.599994 8.8001645,41.599994 Z" id="Path"></path>
                            <path d="M18.4001773,5.59996022 L16.800172,5.59996022 L16.800172,3.99995872 C16.800172,3.55817545 16.4419583,3.19995797 16.000175,3.19995797 C15.5583917,3.19995797 15.2001743,3.55817545 15.2001743,3.99995872 L15.2001743,5.59996022 L13.6001728,5.59996022 C13.1583895,5.59996022 12.800172,5.9581777 12.800172,6.39996098 C12.800172,6.84174425 13.1583895,7.19995797 13.6001728,7.19995797 L15.2001743,7.19995797 L15.2001743,8.79996323 C15.2001743,9.2417465 15.5583917,9.59996398 16.000175,9.59996398 C16.4419583,9.59996398 16.800172,9.2417465 16.800172,8.79996323 L16.800172,7.19995797 L18.4001773,7.19995797 C18.8419605,7.19995797 19.200178,6.84174425 19.200178,6.39996098 C19.200178,5.9581777 18.8419605,5.59996022 18.4001773,5.59996022 Z" id="Path"></path>
                            <path d="M20.0001788,43.1999955 C20.0001788,43.6417788 19.6419613,43.9999962 19.200178,43.9999962 C18.7583947,43.9999962 18.4001773,43.6417788 18.4001773,43.1999955 C18.4001773,42.7582122 18.7583947,42.3999947 19.200178,42.3999947 C19.6419613,42.3999947 20.0001788,42.7582122 20.0001788,43.1999955" id="Path"></path>
                            <path d="M47.2002043,33.5999865 L43.2002005,33.5999865 L43.2002005,32.7999857 C43.1991291,31.7395962 42.777343,30.7228181 42.0273537,29.9728288 C41.2773644,29.2228395 40.2605863,28.8010791 39.2001968,28.799982 L37.6001953,28.799982 C36.5398057,28.8010534 35.5230276,29.2228395 34.7730383,29.9728288 C34.0230491,30.7228181 33.6012887,31.7395962 33.6001915,32.7999857 L33.6001915,33.5999865 L32.00019,33.5999865 L32.00019,32.7999857 C31.9991186,31.7395962 31.5773325,30.7228181 30.8273432,29.9728288 C30.0773539,29.2228395 29.0605758,28.8010791 28.0001863,28.799982 L21.7633804,28.799982 C22.5119525,28.348553 23.2054846,27.8117296 23.8301252,27.1999805 L26.4000933,27.1999805 C27.4604829,27.198909 28.477261,26.7771229 29.2272503,26.0271337 C29.9772396,25.2771444 30.3989999,24.2603663 30.4000971,23.1999767 L30.4000971,6.37436095 C30.4000971,5.38720574 29.979379,4.43899914 29.215456,3.70436988 C28.4508107,2.99222292 27.4807801,2.54011735 26.4440705,2.41220866 L16.7718329,0.0590178839 C16.7421899,0.0518750201 16.7121903,0.0465177579 16.6818332,0.0425890685 C16.2286214,-0.0141963562 15.7696861,-0.0141963562 15.3164377,0.0425890685 C15.2860806,0.0465175751 15.2560801,0.0518745629 15.2264371,0.0590178839 L5.55602807,2.41257438 C4.5192271,2.54042821 3.54926047,2.99257949 2.78464261,3.70436988 C2.02071047,4.43901742 1.6000015,5.38684002 1.6000015,6.37436095 L1.6000015,23.1999767 C1.60107295,24.2603663 2.02285904,25.2771444 2.77284832,26.0271337 C3.52283759,26.7771229 4.53961569,27.1988833 5.60000525,27.1999805 L8.16997338,27.1999805 C8.79461396,27.8117662 9.48782604,28.3485073 10.2364439,28.799982 L4,28.799982 C2.93961419,28.8010534 1.92283609,29.2228395 1.17284681,29.9728288 C0.42285754,30.7228181 0.00109714389,31.7395962 0,32.7999857 L0,47.1999992 C0,47.4121412 0.0842862505,47.6157162 0.234285934,47.7657141 C0.384285618,47.9157119 0.587858837,48 0.80000075,48 L47.2000443,48 C47.4121862,48 47.6157612,47.9157137 47.7657591,47.7657141 C47.9157569,47.6157144 48.000045,47.4121412 48.000045,47.1999992 L48.000045,34.3999872 C48.000045,34.1878453 47.9157588,33.9842703 47.7657591,33.8342724 C47.6157594,33.6842746 47.4121862,33.5999865 47.2000443,33.5999865 L47.2002043,33.5999865 Z M46.400295,39.9999925 L41.4988046,39.9999925 C41.2609438,39.0771116 40.6241615,38.3081966 39.7616602,37.902802 C38.8995153,37.4974439 37.9009041,37.4974439 37.0388233,37.902802 C36.1763219,38.3081601 35.5395762,39.0771116 35.3016788,39.9999925 L30.4002799,39.9999925 L30.4002799,35.199988 L46.400295,35.199988 L46.400295,39.9999925 Z M40.0001975,40.7999932 C40.0001975,41.2242771 39.8316214,41.6314272 39.5316257,41.9314229 C39.2316299,42.2314186 38.8244798,42.3999947 38.400196,42.3999947 C37.9759122,42.3999947 37.5687621,42.2314186 37.2687664,41.9314229 C36.9687707,41.6314272 36.8001945,41.2242771 36.8001945,40.7999932 C36.8001945,40.3757094 36.9687707,39.9685593 37.2687664,39.6685636 C37.5687621,39.3685679 37.9759122,39.1999917 38.400196,39.1999917 C38.8244798,39.2003489 39.2309077,39.369281 39.5308942,39.6692768 C39.8308808,39.9692725 39.9998227,40.3757094 40.0001975,40.799975 L40.0001975,40.7999932 Z M35.200193,32.7999857 C35.2009073,32.16356 35.4541178,31.5535389 35.903764,31.103527 C36.3537667,30.6538809 36.9637878,30.4006692 37.6002227,30.3999561 L39.2002242,30.3999561 C39.8366499,30.4006703 40.4466711,30.6538809 40.8966829,31.103527 C41.3463291,31.5535297 41.5995407,32.1635509 41.6002539,32.7999857 L41.6002539,33.5999865 L35.200193,33.5999865 L35.200193,32.7999857 Z M30.4002159,32.7999857 L30.4002159,33.5999865 L29.6001878,33.5999865 C29.1584045,33.5999865 28.800187,33.958204 28.800187,34.3999835 L28.800187,46.3999985 L16.8001758,46.3999985 L16.8001758,39.9999925 L23.2001818,39.9999925 C24.2605713,39.998921 25.2773494,39.577135 26.0273387,38.8271457 C26.777328,38.0771564 27.1990884,37.0603783 27.2001855,35.9999887 L27.2001855,30.3999835 L28.0001863,30.3999835 C28.636612,30.4006977 29.2466332,30.6539083 29.696645,31.1035544 C30.1462911,31.5535571 30.3995028,32.1635783 30.4002159,32.8000132 L30.4002159,32.7999857 Z M6.40014772,30.3999835 L10.8026387,30.3999835 L15.2001743,36.2036004 L15.2001743,38.3999835 L8.80016826,38.3999835 C8.16374252,38.3992768 7.55372137,38.1460662 7.10407524,37.6960635 C6.65407253,37.2464173 6.40086086,36.6364053 6.40014772,35.9999705 L6.40014772,30.3999835 Z M19.2102352,30.3999835 L16.043055,34.6667761 L12.8102292,30.3999835 L19.2102352,30.3999835 Z M16.8002489,36.3310519 L21.2027399,30.3999835 L25.6002754,30.3999835 L25.6002754,35.9999887 C25.5995612,36.6364145 25.3463506,37.2464356 24.8963479,37.6960818 C24.4467018,38.1460845 23.8366898,38.3992961 23.2002549,38.4000093 L16.8002489,38.4000093 L16.8002489,36.3310519 Z M26.4002762,25.6000704 L25.1863779,25.6000704 C25.5403074,25.0932814 25.8520883,24.5582409 26.1181274,24.0000689 L26.4002671,24.0000689 C27.2663433,24.0011404 28.1088858,23.7193555 28.8002693,23.1979287 L28.8002693,23.2000716 C28.7995551,23.8364974 28.5463445,24.4465185 28.0966984,24.8965304 C27.6466956,25.3461765 27.0366745,25.5993882 26.4002396,25.6001013 L26.4002762,25.6000704 Z M5.25922779,22.3753817 C4.54565455,22.272881 3.91632367,21.8550246 3.54494047,21.237552 C3.17315498,20.620052 3.09886919,19.868225 3.34207856,19.189733 C3.58529708,18.5115152 4.12064844,17.9783033 4.7999085,17.7375716 L4.7999085,19.2000644 C4.79919426,20.2750826 4.95383779,21.3447064 5.25919122,22.3753817 L5.25922779,22.3753817 Z M5.59994582,16.0000614 C4.73386958,15.99899 3.89132708,16.2807748 3.19994357,16.8022016 L3.19994357,12.800095 L11.0620767,12.800095 L6.39994658,16.0636409 L6.39994658,16.0000696 L5.59994582,16.0000614 Z M27.1999661,17.7375716 C27.8792536,17.978285 28.4145958,18.5114969 28.657796,19.189733 C28.9010145,19.8683073 28.8267288,20.6201343 28.4549341,21.237552 C28.0835052,21.855052 27.4542475,22.2728902 26.7406468,22.3753817 C27.0460002,21.3447064 27.2006427,20.2749911 27.1999295,19.2000644 L27.1999661,17.7375716 Z M26.3999653,16.0000614 C20.5185427,16.0000614 16.8410992,14.4657971 14.5809828,12.8000584 L28.7999676,12.8000584 L28.7999676,16.802165 C28.1085384,16.2807382 27.266069,15.998946 26.3999653,16.0000248 L26.3999653,16.0000614 Z M3.19994357,6.37445238 C3.19994357,5.20334271 4.31848177,4.18016461 5.80209459,3.994473 C5.83245164,3.99054441 5.86245213,3.98518751 5.89209421,3.97804419 L15.5597604,1.62521912 C15.852259,1.59164744 16.1479758,1.59164744 16.4404744,1.62521912 L26.1081406,3.97740419 C26.1377836,3.98490417 26.1681407,3.99026089 26.1981411,3.99418958 C27.6810225,4.18026518 28.7995607,5.20351642 28.7995607,6.37453467 L28.7995607,11.2002306 L3.19953672,11.2002306 L3.19994357,6.37445238 Z M3.19994357,23.2000682 L3.19994357,23.1979253 C3.89137279,23.719352 4.73384216,24.0011443 5.59994582,24.0000654 L5.88208552,24.0000654 C6.1481612,24.5582831 6.45994206,25.0932779 6.81383496,25.6000669 L5.59993668,25.6000669 C4.96351094,25.5993527 4.3534898,25.3461421 3.90347795,24.896496 C3.45383181,24.4464933 3.20062015,23.8364721 3.199907,23.2000373 L3.19994357,23.2000682 Z M6.39994658,19.2000644 L6.39994658,18.0165204 L12.8724555,13.4857733 C15.1849605,15.4557866 19.1113642,17.4385999 25.6002389,17.5900972 L25.6002389,19.2000644 C25.6002389,22.6297362 23.7705686,25.7990192 20.8002344,27.5140379 C17.8299002,29.228691 14.1705596,29.228691 11.2002254,27.5140379 C8.22989115,25.7990192 6.40022086,22.6297362 6.40022086,19.2000644 L6.39994658,19.2000644 Z M1.59994207,32.8000772 C1.60065631,32.1636514 1.85386688,31.5536303 2.30351302,31.1036184 C2.75351573,30.6539723 3.36353687,30.4007606 3.99997175,30.4000475 L4.7999725,30.4000475 L4.7999725,36.0000527 C4.80104396,37.0604423 5.22283004,38.0772204 5.97281932,38.8272097 C6.72280859,39.577199 7.73958669,39.9989594 8.79997626,40.0000565 L15.1999823,40.0000565 L15.1999823,46.4000625 L1.59994207,46.4000625 L1.59994207,32.8000772 Z M30.3999691,46.4000899 L30.3999691,41.6000854 L35.301368,41.6000854 C35.5392288,42.5229663 36.1760111,43.2918813 37.0385125,43.697276 C37.9006573,44.1026341 38.8992685,44.1026341 39.7613493,43.697276 C40.6238507,43.2919179 41.2605964,42.5229663 41.4984938,41.6000854 L46.3998927,41.6000854 L46.3998927,46.4000899 L30.3999691,46.4000899 Z" id="Shape" stroke="#D01124" stroke-width="0.2"></path>
                        </g>
                    </g>
                </g>
            </g>
        </g>
    </g>
</svg>