<?xml version="1.0" encoding="UTF-8"?>
<svg width="43px" height="50px" viewBox="0 0 43 50" version="1.1" xmlns="http://www.w3.org/2000/svg" xmlns:xlink="http://www.w3.org/1999/xlink">
    <title>E1ED42D6-0A64-455C-9B44-5EA3D42B9FC5@2x</title>
    <g id="Homepage" stroke="none" stroke-width="1" fill="none" fill-rule="evenodd">
        <g transform="translate(-1121.000000, -838.000000)" fill="#D01124" fill-rule="nonzero" id="Group-10" stroke="#D01124" stroke-width="0.5">
            <g transform="translate(162.000000, 777.000000)">
                <g id="Group-8-Copy-4" transform="translate(876.000000, 62.000000)">
                    <path d="M122.155398,14.2990453 L122.155398,46.0044047 C122.153403,46.5342195 121.941871,47.0415946 121.566208,47.4157881 C121.191044,47.7899561 120.682673,47.9999921 120.152909,47.9999921 L86.0094621,47.9999921 C85.4781403,48.0014808 84.9682874,47.7924465 84.591182,47.4182786 C84.2145236,47.0441106 84.0014943,46.5352412 84,46.0044686 L84,6.66811129 C84,6.1367895 84.2110242,5.62743475 84.5861884,5.251747 C84.9618506,4.87658288 85.4712181,4.66555865 86.0025526,4.66555865 L110.820218,4.66555865 C111.214833,4.66555865 111.535131,4.98584344 111.535131,5.3804714 C111.535131,5.77559744 111.214846,6.09588224 110.820218,6.09588224 L86.0089384,6.09588224 C85.6931364,6.09588224 85.4367094,6.35181122 85.4367094,6.66811129 L85.4367094,46.0044686 C85.4407005,46.3177674 85.6956269,46.5692135 86.0089384,46.5692135 L120.152386,46.5692135 C120.465684,46.5692135 120.720617,46.3177674 120.724615,46.0044686 L120.724615,14.2991092 C120.724615,13.904494 121.0449,13.5841964 121.440026,13.5841964 C121.834641,13.5841964 122.154938,13.9044812 122.154938,14.2991092 L122.155398,14.2990453 Z M114.702946,26.3362261 C114.702946,26.7153877 114.552281,27.0795683 114.283887,27.347477 C114.015978,27.6158838 113.651797,27.7665369 113.272636,27.7665369 L92.8892505,27.7665369 C92.0995092,27.7665369 91.4589652,27.1259673 91.4589652,26.3362516 L91.4589652,13.2696844 C91.4589652,12.479445 92.0995348,11.8393991 92.8892505,11.8393991 L113.272636,11.8393991 C113.651797,11.8393991 114.015978,11.990065 114.283887,12.258459 C114.552293,12.5263677 114.702946,12.8905483 114.702946,13.2697099 L114.702946,26.3362261 Z M113.272661,13.2696588 L92.889276,13.2696588 L92.889276,26.3362261 L113.272661,26.3362261 L113.272661,13.2696588 Z M114.702946,32.9089738 L114.702946,32.9094726 C114.702946,32.7193937 114.627615,32.5377952 114.493416,32.4036045 C114.359213,32.2694011 114.177614,32.1940746 113.987548,32.1940746 L92.1737502,32.1940746 C91.7786242,32.1940746 91.4583394,32.5143594 91.4583394,32.9094854 C91.4583394,33.3041006 91.7786242,33.6243982 92.1737502,33.6243982 L113.987548,33.6243982 L113.987049,33.6243982 C114.376684,33.6243982 114.694478,33.3130918 114.70246,32.9234575 L114.702946,32.9089738 Z M92.1739418,39.3455768 L92.1739418,39.3460757 C91.7788157,39.3460757 91.4585309,39.6663605 91.4585309,40.0614865 C91.4585309,40.4561017 91.7788157,40.7763993 92.1739418,40.7763993 L106.835675,40.7763993 L106.835176,40.7763993 C107.230302,40.7763993 107.550587,40.4561145 107.550587,40.0614865 C107.550587,39.6663605 107.230302,39.3460757 106.835176,39.3460757 L92.1734429,39.3460757 L92.1739418,39.3455768 Z M125.252242,4.8726237 L122.999214,7.06817993 L123.528531,10.1723038 L123.528531,10.1733015 C123.572932,10.4407121 123.462179,10.7106004 123.242167,10.8697466 C123.02265,11.0288929 122.731803,11.049851 122.491341,10.9241253 L119.702035,9.49384005 L116.91273,10.9241253 C116.672268,11.0498459 116.381408,11.0288916 116.161904,10.8697466 C115.941888,10.7106004 115.831146,10.4406994 115.87554,10.1733015 L116.404857,7.06917764 L114.151829,4.87362141 C113.955262,4.6840406 113.883422,4.39918407 113.967242,4.1392576 C114.050555,3.87933112 114.275061,3.68976309 114.545448,3.6503501 L117.663493,3.19985941 L119.043969,0.396122227 C119.165199,0.153667224 119.412645,0 119.68404,0 C119.955436,0 120.203382,0.153654453 120.324112,0.396122227 L121.71902,3.2213156 L124.837065,3.67180629 C125.109456,3.70423452 125.338948,3.88882038 125.428745,4.14775068 C125.518544,4.4066682 125.452692,4.69402795 125.259126,4.88760625 L125.252242,4.8726237 Z M123.213776,4.8726237 L121.189742,4.58027027 C120.957261,4.54534776 120.75671,4.39817359 120.653439,4.18665127 L119.737975,2.32724209 L118.82251,4.18665127 C118.719241,4.39817359 118.518688,4.54535287 118.28571,4.58027027 L116.183386,4.88060591 L117.671015,6.31089119 L117.670516,6.31089119 C117.838641,6.47402213 117.916471,6.70900578 117.878054,6.94049002 L117.541805,8.97844539 L119.379758,8.01309542 L119.380256,8.01309542 C119.588292,7.90383869 119.837235,7.90383869 120.045271,8.01309542 L121.90468,8.97844539 L121.554459,6.93295481 C121.516542,6.70196866 121.59387,6.46699778 121.761996,6.30385407 L123.213776,4.8726237 Z" id="Shape"></path>
                </g>
            </g>
        </g>
    </g>
</svg>