<?xml version="1.0" encoding="UTF-8"?>
<svg width="175px" height="176px" viewBox="0 0 175 176" version="1.1" xmlns="http://www.w3.org/2000/svg" xmlns:xlink="http://www.w3.org/1999/xlink">
    <title>5C4E0C5F-A7F9-453B-BA78-6E3271968FCB</title>
    <g id="Homepage" stroke="none" stroke-width="1" fill="none" fill-rule="evenodd">
        <g transform="translate(-125.000000, -5144.000000)" id="Group-41">
            <g transform="translate(-28.000000, 1117.000000)">
                <g id="Group-38" transform="translate(28.000000, 4009.000000)">
                    <g id="Logo_x0020_1" transform="translate(125.000000, 18.500000)">
                        <rect id="Rectangle_1252" x="0" y="0" width="175" height="175"></rect>
                        <g id="_2402451253056" transform="translate(39.155251, 35.159817)" fill="#FFFFFF">
                            <path d="M25.789278,102.362403 L24.6135017,101.166396 C24.0451618,101.790399 23.2450107,102.14908 22.4039369,102.15687 C21.7264743,102.141558 21.0843017,101.849749 20.6248821,101.348452 C20.1654626,100.847154 19.9282713,100.179441 19.967775,99.4986413 L19.967775,99.4751518 C19.9331559,98.7980591 20.1727776,98.1357685 20.6318911,97.6396005 C21.0910047,97.1434325 21.7303817,96.8557816 22.4039369,96.8423704 C23.216955,96.8646316 23.9887723,97.2073133 24.5532055,97.7966313 L25.7289818,96.4322829 C24.8612727,95.5402432 23.6554623,95.064958 22.4165796,95.1266583 C21.251735,95.0960372 20.1250257,95.5456809 19.2975937,96.3713735 C18.4701616,97.1970661 18.0138449,98.3271207 18.0344058,99.49962 L18.0344058,99.5231095 C18.0126179,100.681198 18.4593425,101.798489 19.2720844,102.618635 C20.0848262,103.438781 21.193817,103.891377 22.3446132,103.872582 C23.6623387,103.928198 24.9323853,103.371395 25.789278,102.362403 L25.789278,102.362403 Z M35.5835242,99.49962 L35.5835242,99.4761305 C35.4979724,97.0519855 33.5171832,95.1331178 31.1069073,95.1394417 C28.6966313,95.1457969 26.7258355,97.0750581 26.6528756,99.49962 L26.6528756,99.5231095 C26.7384273,101.947254 28.7192165,103.866122 31.1294925,103.859798 C33.5397684,103.853443 35.5105643,101.924182 35.5835242,99.49962 L35.5835242,99.49962 Z M33.6511275,99.5231095 C33.679542,100.213257 33.4263352,100.885088 32.9502775,101.382669 C32.4742199,101.88025 31.816709,102.160311 31.1303564,102.157864 C30.4391153,102.155873 29.7781939,101.871986 29.298567,101.371037 C28.81894,100.870088 28.5615787,100.194869 28.5852723,99.49962 L28.5852723,99.4761305 C28.5571223,98.7862385 28.8104789,98.1147598 29.2865368,97.6175484 C29.7625946,97.120337 30.4199559,96.84063 31.1060434,96.8433295 C31.797021,96.8450686 32.4577933,97.1286022 32.9374202,97.6291824 C33.417047,98.1297626 33.6745571,98.8046284 33.6511275,99.49962 L33.6511275,99.5231095 Z M44.694089,103.731645 L44.694089,95.2764038 L42.869642,95.2764038 L42.869642,100.483243 L38.9328821,95.2764038 L37.2270825,95.2764038 L37.2270825,103.731645 L39.0515295,103.731645 L39.0515295,98.3554856 L43.1215246,103.731645 L44.694089,103.731645 Z M54.1761563,103.731645 L54.1761563,95.2764038 L52.3546268,95.2764038 L52.3546268,100.483243 L48.417867,95.2764038 L46.7140124,95.2764038 L46.7140124,103.731645 L48.5374869,103.731645 L48.5374869,98.3554856 L52.607482,103.731645 L54.1761563,103.731645 Z M62.5894244,103.731645 L62.5894244,102.077592 L58.0292794,102.077592 L58.0292794,100.302178 L61.9893797,100.302178 L61.9893797,98.6471469 L58.0292794,98.6471469 L58.0292794,96.9275199 L62.5310732,96.9275199 L62.5310732,95.2724889 L56.1931622,95.2724889 L56.1931622,103.72773 L62.5894244,103.731645 Z M71.6163525,102.367296 L70.4405761,101.171289 C69.8727663,101.794895 69.073377,102.15355 68.2329564,102.161763 C67.5554937,102.146452 66.9133212,101.854643 66.4539016,101.353346 C65.994482,100.852048 65.7572908,100.184335 65.7967945,99.5035349 L65.7967945,99.4800454 C65.7621753,98.8029528 66.001797,98.1406622 66.4609106,97.6444942 C66.9200242,97.1483261 67.5594012,96.8606752 68.2329564,96.8472641 C69.0454351,96.8694074 69.8166885,97.2121489 70.3802799,97.801525 L71.5560563,96.4371766 C70.6884886,95.5449219 69.4825781,95.0695972 68.2436541,95.1315519 C67.0788095,95.1009309 65.9521002,95.5505745 65.1246681,96.3762672 C64.2972361,97.2019598 63.8409193,98.3320144 63.8614802,99.5045136 L63.8614802,99.5280031 C63.8396923,100.686092 64.2864169,101.803383 65.0991588,102.623529 C65.9119007,103.443675 67.0208915,103.896271 68.1716876,103.877475 C69.4894132,103.933092 70.7594598,103.376289 71.6163525,102.367296 L71.6163525,102.367296 Z M79.4548615,96.9911373 L79.4548615,95.2764038 L72.4935653,95.2764038 L72.4935653,96.9911373 L75.0493471,96.9911373 L75.0493471,103.731645 L76.8971346,103.731645 L76.8971346,96.9911373 L79.4548615,96.9911373 Z" id="Path_2739" fill-rule="nonzero"></path>
                            <g id="Group_8532" transform="translate(18.696990, 0.000000)">
                                <g id="Group_8530">
                                    <path d="M51.4605832,10.3354395 C52.3080452,11.7363673 53.2327359,13.0884744 54.2303193,14.3854206 C54.8537045,15.2868301 56.211342,18.116336 56.1403481,19.0833204 L54.927616,17.4087149 C55.0403464,17.9470783 55.1881648,18.4773907 55.3701125,18.9962135 C55.0871092,18.7172757 55.0384832,18.4314868 54.6407227,18.2562943 C54.7321395,19.1479165 56.0897771,21.3510358 56.5439438,22.4012121 C56.6411957,22.6312135 56.7384477,22.8621935 56.8191669,23.0970885 L56.9280891,23.7821989 C56.3413495,22.3556259 55.5554189,21.0205704 54.5940417,19.8173672 C54.5804264,20.237242 54.8682923,20.6669041 54.8021609,21.0897151 C54.5185373,20.4947944 54.1705378,19.9331929 53.7644824,19.4151096 C53.7382244,19.8516228 54.4734493,21.6769526 54.6047394,22.3405309 C54.7992434,23.31926 54.8079961,24.2647124 54.9558191,25.1348026 C54.7329457,24.1671783 54.3625681,23.2401095 53.8578443,22.3865312 C53.8052503,22.7934492 53.8482192,23.2071093 53.9832993,23.5942829 C54.0523482,24.0425409 53.9268932,23.9250934 53.9123054,24.3557342 L53.8529817,24.7589706 C53.8129759,25.0180162 53.8061124,25.2811527 53.8325588,25.5419539 C53.8490916,26.6498752 54.0046948,27.7147325 54.0416505,28.8069942 C54.1634223,30.8698174 53.9234383,32.9381104 53.3326836,34.9172001 C52.8129858,36.886344 52.0120324,38.7691462 50.9548729,40.5067222 C49.846106,42.3544675 48.5290182,44.0671702 47.0297833,45.6107945 C43.4233254,49.1984217 38.8397447,51.6278132 33.8599212,52.5910906 C29.7280004,53.1630488 25.5205442,52.7613279 21.5692169,51.4175944 C21.2910763,51.3197215 21.1947968,51.2884022 20.8631676,51.1817207 C20.5879445,51.0946138 20.4683246,50.9918472 20.1736511,50.888102 C19.705777,50.7101204 19.2491395,50.5035504 18.8062884,50.2695451 C10.895813,46.3653947 6.80247744,39.3772687 5.9622204,30.5775152 C5.72688625,27.9756438 5.84796302,25.3535674 6.3220527,22.7848739 C6.41930467,22.2269983 6.54184215,21.8178896 6.63423153,21.3167803 C6.7266209,20.8156709 6.93182256,20.3909025 7.03490965,19.8731548 C7.34347692,18.8970734 7.73759997,17.9505102 8.21263104,17.0446276 C8.42366782,16.6267103 8.6988909,16.1461543 8.94396587,15.7047475 C10.7158968,12.552261 14.4299496,8.81155826 14.8763362,7.95712774 C12.9125192,9.52066 11.1485714,11.3228273 9.62472968,13.3225208 C8.21335904,15.1364691 7.00012102,17.0980505 6.00598379,19.1733635 C6.2084126,18.3353703 6.50193823,17.5223646 6.88125154,16.7490514 C9.89283101,10.1506584 15.571487,5.16877346 22.4775504,3.06641832 C23.7688154,2.66220699 25.0874213,2.35244787 26.4230629,2.13956184 L30.1390607,1.77645333 C27.6617863,1.81338835 25.19803,2.15154503 22.8013994,2.7835656 C19.9554001,3.59856457 17.2523561,4.8532253 14.7888094,6.50273626 C10.0769514,9.68947828 6.05071969,14.8307424 4.52094617,19.2702577 C4.41007892,19.5873659 4.3206071,19.6930686 4.20973985,20.0767305 C3.94424197,20.9908635 3.4725699,22.0586569 3.2060995,23.3221962 C2.04760151,28.366404 2.19426387,33.6253684 3.63206314,38.5962429 C4.51591168,41.4711926 5.75762907,44.2220572 7.32763809,46.783312 L7.05533257,46.5503745 C6.99211879,46.4779485 6.91042713,46.3546287 6.85207595,46.270458 C6.71495066,46.0747121 6.56615515,45.8789663 6.4309749,45.6979014 C1.73825033,39.2321313 -0.023086708,31.0726339 1.58101904,23.2301957 L1.84748944,22.0478909 C2.14092238,20.87388 2.50565416,19.7190939 2.9396291,18.5900409 C3.20296182,17.8214584 3.5282158,17.0757991 3.91214882,16.360496 C9.36895699,5.75302976 19.3596521,0.146869344 30.9481972,0.324019315 C32.5649884,0.373703058 34.1759483,0.543155286 35.7680049,0.831001 C37.3514097,1.10264775 38.911955,1.49527504 40.4360996,2.00547595 L43.8603415,3.4491014 L43.8603415,3.4491014 L43.8603415,3.4491014 L43.8603415,3.4491014 L43.8603415,3.4491014 L43.8603415,3.4491014 L43.8603415,3.4491014 L43.8603415,3.4491014 L43.8603415,3.4491014 L43.8603415,3.4491014 L43.8603415,3.4491014 L43.8603415,3.4491014 L43.8603415,3.4491014 L43.8603415,3.4491014 L43.8603415,3.4491014 L43.8603415,3.43148428 L43.8603415,3.43148428 L43.8603415,3.41973953 L43.8603415,3.41973953 L43.8603415,3.40016495 L43.8603415,3.40016495 L43.8603415,3.39233511 L43.8603415,3.39233511 L43.8603415,3.37569672 L43.8603415,3.37569672 L43.8603415,3.37569672 L43.8603415,3.37569672 L43.8603415,3.35024976 L43.8603415,3.35024976 L43.8603415,3.33948374 L43.8603415,3.33948374 L43.8603415,3.33067518 L43.8603415,3.33067518 L43.8603415,3.31012187 L43.8603415,3.31012187 L43.8603415,3.31012187 L43.8603415,3.19267437 L43.4917566,3.0223755 C42.548464,2.54931535 41.5648616,2.16246847 40.5528019,1.86649641 C40.3048094,1.80581521 40.1404536,1.72751688 39.9012137,1.64530363 C36.6031856,0.548862689 33.1514022,-0.00664488959 29.6780864,0 C21.3777919,0.0104519105 13.4446583,3.44501143 7.72928874,9.50254102 C5.87529188,11.4744467 4.32391234,13.7136188 3.12635288,16.1461543 C2.61856652,17.1024871 2.18105907,18.0949632 1.81734133,19.1156185 L0.461648838,24.0611367 C-1.29718335,33.9004364 2.03719727,43.9644968 9.31157833,50.7726119 C10.6462829,52.008385 12.0877457,53.1220147 13.6188682,54.1002909 C15.2599303,55.1380062 16.9976142,56.0122317 18.8072609,56.7105615 C29.3902206,60.8828837 42.4676933,58.01325 50.7059079,50.0415013 C53.3503807,47.5219801 55.5243478,44.545513 57.124538,41.2534925 C57.6810781,40.110064 58.1511649,38.9260347 58.5308016,37.7114718 C58.6766795,37.2632138 58.7826842,36.894233 58.9256446,36.445975 C60.5554382,31.1528458 60.5442435,25.4856377 58.8935514,20.1990716 C58.161692,18.0735438 57.0609228,16.095547 55.642418,14.3570375 C54.6533654,13.0416255 52.7248588,10.4812701 51.4664183,10.3608865 L51.4605832,10.3354395 Z" id="Path_2740"></path>
                                    <path d="M49.5826476,11.9963428 C50.3561267,13.2745634 51.2003055,14.5080719 52.1111989,15.6910453 C52.6781779,16.5141565 53.9181405,19.0940864 53.8529817,19.9778788 L52.7423642,18.4510614 C52.8453809,18.9419172 52.9802008,19.4254635 53.1459599,19.8986018 C52.8862971,19.6431535 52.8425337,19.3828115 52.4797838,19.2232787 C52.562448,20.0366026 53.8014381,22.0459335 54.2157316,23.0041093 C54.3052034,23.2135573 54.3907851,23.4239841 54.4676142,23.6393045 L54.5648661,24.2627549 C54.0295126,22.9595228 53.3116529,21.7400703 52.4331029,20.6414572 C52.4214327,21.0241402 52.6820679,21.4175894 52.6276068,21.8012512 C52.3693002,21.2577236 52.0519431,20.7446751 51.6813451,20.2714976 C51.6560596,20.670819 52.3270982,22.3346585 52.4476907,22.9404919 C52.6246893,23.8301566 52.6314969,24.6963319 52.7657046,25.4920387 C52.5644711,24.6103703 52.2285214,23.7654638 51.7698444,22.9874709 C51.7217848,23.3587955 51.7610936,23.7362896 51.8846018,24.0895199 C51.946843,24.4976499 51.8330582,24.3919472 51.819443,24.7853963 L51.7649818,25.1533984 C51.7286639,25.3884947 51.7227797,25.627337 51.7474765,25.8639558 C51.7620643,26.8740042 51.9040522,27.8458822 51.9419804,28.8412497 C52.0536159,30.7246274 51.8346951,32.613072 51.2952548,34.4200057 C50.8216298,36.2166404 50.0914385,37.9345951 49.1275084,39.5201632 C48.1152804,41.2057341 46.9134233,42.7683047 45.5457182,44.1769564 C42.2558252,47.4502251 38.0742973,49.6667484 33.5312095,50.5455468 C29.7626129,51.0685169 25.9248325,50.7039988 22.3200022,49.4806895 C22.0661745,49.3828166 21.9796203,49.3622633 21.6771666,49.2653691 C21.425284,49.1851133 21.3163618,49.092134 21.0460013,49.0001335 C20.6199797,48.8361438 20.2036998,48.6475892 19.799231,48.4354068 C12.5831347,44.8738115 8.84963146,38.49837 8.08134088,30.469855 C7.86637643,28.0963955 7.97698454,25.7044548 8.41005254,23.3613454 C8.49563428,22.8524062 8.61039161,22.4804892 8.69597334,22.0214652 C8.78155508,21.5624413 8.96730635,21.1778007 9.05969572,20.7040958 C9.34036629,19.8138769 9.69833769,18.9502427 10.1294674,18.1231871 C10.3239714,17.7414828 10.5729364,17.3030121 10.7975885,16.9027119 C12.4129437,14.026227 15.802175,10.6133986 16.2145233,9.83433019 C14.4221656,11.2602555 12.8120753,12.9039667 11.4209736,14.7279758 C10.1337833,16.3829333 9.02687164,18.1721905 8.11926915,20.0649857 C8.30478397,19.3002731 8.57352691,18.5584807 8.9206254,17.8530579 C11.6681254,11.8328228 16.8494348,7.28769244 23.150534,5.37034667 C24.3280052,5.00100505 25.530622,4.71838473 26.748857,4.52472471 L30.1371157,4.19195681 C27.8775236,4.22681487 25.6303485,4.53571223 23.444235,5.11196218 C20.8482888,5.85556821 18.3825389,6.99957758 16.1347767,8.50325859 C11.835267,11.4110628 8.16011497,16.1011328 6.76746673,20.1501351 C6.67021476,20.4437539 6.58463302,20.5357544 6.48251845,20.8861394 C6.24036104,21.7200167 5.81050732,22.6948309 5.56737739,23.846795 C4.51062527,28.4488745 4.64456301,33.246828 5.95638528,37.7819403 C6.76354701,40.4045278 7.89675495,42.9139634 9.32908368,45.2506222 L9.08011863,45.0372593 C9.01464028,44.9552594 8.95329431,44.8700027 8.89631241,44.781811 C8.76988484,44.6056397 8.63373208,44.4255536 8.50730452,44.2591696 C4.22547257,38.3625151 2.61706861,30.9203141 4.07844969,23.7665392 L4.3206071,22.6899372 C4.5891749,21.6188108 4.92206392,20.5650677 5.31743982,19.5345145 C5.55832791,18.8333998 5.85560675,18.1532142 6.20632285,17.5007154 C11.1856238,7.82304185 20.2991062,2.70820346 30.8684505,2.86969376 C32.3430461,2.91547944 33.8122859,3.07053834 35.2642397,3.33361137 C36.7098757,3.58302838 38.1345265,3.94293749 39.5258211,4.4102134 L42.1292564,5.50834747 L42.1924702,5.50834747 L42.1924702,5.50834747 L42.1924702,5.50834747 L42.1924702,5.50834747 L42.1924702,5.50834747 L42.1924702,5.5024751 L42.1924702,5.5024751 L42.1924702,5.49660273 L42.1924702,5.49660273 L42.1924702,5.49660273 L42.1924702,5.49660273 L42.1924702,5.49073035 L42.1924702,5.49073035 L42.1924702,5.48485798 L42.1924702,5.48485798 L42.1924702,5.47702814 L42.1924702,5.47702814 L42.1924702,5.46919831 L42.1924702,5.46919831 L42.1924702,5.46136848 L42.1924702,5.46136848 L42.1924702,5.45353864 L42.1924702,5.45353864 L42.1924702,5.44570881 L42.1924702,5.44570881 L42.1924702,5.41145329 L42.1924702,5.41145329 L42.1924702,5.40362346 L42.1924702,5.40362346 L42.1924702,5.38698506 L42.1924702,5.38698506 L42.1924702,5.34294225 L42.1924702,5.34294225 L42.1924702,5.30575055 L42.1924702,5.30575055 L42.1924702,5.28617596 L42.1924702,5.2773674 L42.1924702,5.27149503 C41.3720663,4.86266615 40.5166684,4.52919774 39.6366884,4.27514878 C39.4349345,4.21844057 39.2362686,4.15114242 39.0415063,4.07353058 C36.0331454,3.07315889 32.8843374,2.56687312 29.7160147,2.57404091 C22.1435149,2.5828259 14.9057978,5.71608274 9.69183354,11.2427214 C8.00004104,13.0403413 6.5852256,15.0827529 5.49443841,17.3020334 C5.03001042,18.1744245 4.630506,19.0802755 4.29921167,20.0121343 L3.06216658,24.5230969 C1.45698835,33.4996113 4.49819915,42.6814967 11.1340803,48.893452 C12.3525757,50.019483 13.6676884,51.0347958 15.0640325,51.9275123 C16.5617553,52.8739566 18.1472731,53.6717771 19.7982585,54.309739 C29.4524618,58.1160165 41.3833338,55.4959587 48.8989662,48.22498 C51.3113597,45.9271262 53.294325,43.2121464 54.753535,40.2091885 C55.2617792,39.1667135 55.6909129,38.0870293 56.037261,36.9793824 C56.1714687,36.5702736 56.2667756,36.2335908 56.3980658,35.8254608 C57.8838944,30.9973461 57.873039,25.8282741 56.3669452,21.0065231 C55.6999563,19.0671172 54.6959567,17.2623639 53.4017325,15.6763643 C52.4992342,14.4764424 50.7428636,12.140216 49.5933453,12.0305983 L49.5826476,11.9963428 Z" id="Path_2741"></path>
                                </g>
                                <g id="Group_8531" transform="translate(15.921795, 2.277563)">
                                    <path d="M7.8346189,44.0907682 C12.3422478,46.4818035 23.9696936,37.2494517 26.9553292,32.7326168 C30.4661254,27.4142027 28.1816766,20.0659045 29.6851921,13.3537801 C30.8026172,8.37890001 36.0863169,3.92959743 36.4111385,0 C27.5038303,7.64191699 17.5102176,24.3018441 0,16.6706931 C2.36322293,27.9534825 16.4093253,19.3132618 18.0013401,26.1751316 C19.7547932,33.7426652 13.7290609,41.4638593 7.8346189,44.0907682 Z" id="Path_2742"></path>
                                    <path d="M12.1681668,35.7353577 C13.4560708,34.0520612 14.413263,32.1370798 14.988474,30.0929843 C15.4193002,28.1355261 15.2179886,26.2123233 13.0434345,25.7640654 C9.91386607,25.1220191 3.76365133,25.9030449 1.32846194,22.2944707 C0.836366963,30.3004749 5.99655662,26.7848799 4.55625491,35.5856122 C2.90588894,45.6459688 1.28956115,50.8009351 12.1681668,35.7353577 Z" id="Path_2743"></path>
                                    <path d="M18.2026517,4.04117255 C12.2187378,6.53301689 15.5894912,13.8020381 20.7525984,12.3466679 C26.5322831,10.7190413 23.270452,1.93299002 18.2026517,4.04117255 Z" id="Path_2744"></path>
                                    <path d="M5.47236849,9.57980065 C0.0719664596,12.3417742 4.14390654,18.8405356 8.53386058,16.8928646 C13.4781509,14.6975752 9.94401418,7.29251069 5.47236849,9.57980065 Z" id="Path_2745"></path>
                                </g>
                            </g>
                            <g id="Group_8534" transform="translate(0.000000, 66.319497)">
                                <polygon id="Path_2746" points="97.3764549 20.6690282 93.0370719 18.5402923 93.0370719 5.58583365 97.3764549 5.58583365"></polygon>
                                <path d="M95.2067634,0.00120527785 C94.2473672,-0.0294933348 93.3653548,0.528531759 92.9769703,1.41193424 C92.5885859,2.29533672 92.7714633,3.32753401 93.439298,4.02140578 C94.1071328,4.71527756 95.1264319,4.93212638 96.0161621,4.56961573 C96.9058922,4.20710509 97.4882061,3.33769693 97.4882947,2.37168721 C97.5083281,1.08319662 96.4870675,0.0221197893 95.2067634,0.00120527785 Z" id="Path_2747"></path>
                                <g id="Group_8533" transform="translate(0.001945, 4.826340)" fill-rule="nonzero">
                                    <path d="M11.8122246,11.1868739 L11.8122246,11.1438098 C11.8122246,8.52570938 10.106425,7.43246895 7.07799855,6.64165582 C4.49887624,5.97709875 3.85895827,5.65509687 3.85895827,4.66755918 L3.85895827,4.62645256 C3.85895827,3.89632064 4.5212442,3.31691299 5.77773968,3.31691299 C7.19043157,3.40468235 8.54359427,3.92094572 9.6590659,4.79773016 L11.3648655,2.308822 C9.79427722,1.04233395 7.83382052,0.367023046 5.82150307,0.399321482 C2.77168121,0.399321482 0.59809963,2.2011618 0.59809963,4.9269224 L0.59809963,4.96998648 C0.59809963,7.95315285 2.53827648,8.78703006 5.54433495,9.56218352 C8.03787552,10.2061873 8.55136593,10.6387856 8.55136593,11.471684 L8.55136593,11.5147481 C8.55136593,12.3956043 7.74028448,12.9309692 6.39626223,12.9309692 C4.74041176,12.8858681 3.15706862,12.2376369 1.94017685,11.1066181 L0,13.4457807 C1.74590672,15.0020438 3.99981615,15.857316 6.33207592,15.8486272 C9.55306125,15.8426883 11.8122246,14.1690615 11.8122246,11.1868739 Z" id="Path_2748"></path>
                                    <polygon id="Path_2749" points="35.6302051 0.606812056 32.1972105 0.606812056 29.1045978 10.7787438 25.7552399 0.563747974 22.9397953 0.563747974 19.5923824 10.7777651 16.5017147 0.605833327 12.9860559 0.605833327 18.0810867 15.7350281 20.9393222 15.7350281 24.307158 5.90663025 27.6769388 15.7350281 30.5332293 15.7350281"></polygon>
                                    <path d="M50.6838379,15.6293254 L44.2866032,0.500130581 L41.2591493,0.500130581 L34.8619146,15.6293254 L38.2103,15.6293254 L39.5718276,12.2605397 L45.8834806,12.2605397 L47.2450082,15.6293254 L50.6838379,15.6293254 Z M44.7145119,9.34099074 L40.7476039,9.34099074 L42.7305716,4.4698559 L44.7145119,9.34099074 Z" id="Path_2750"></path>
                                    <polygon id="Path_2751" points="63.8595352 0.606812056 60.1270045 0.606812056 56.5024235 6.63676218 52.9410562 0.606812056 49.106411 0.606812056 54.8442773 9.70899289 54.8442773 15.6322615 58.1216688 15.6322615 58.1216688 9.64048185"></polygon>
                                    <path d="M78.1069491,15.6293254 L71.7097144,0.500130581 L68.6822605,0.500130581 L62.2850257,15.6293254 L65.6324386,15.6293254 L66.9939662,12.2605397 L73.3056192,12.2605397 L74.6671469,15.6293254 L78.1069491,15.6293254 Z M72.1376231,9.34099074 L68.1716876,9.34099074 L70.1546553,4.4698559 L72.1376231,9.34099074 Z" id="Path_2752"></path>
                                    <polygon id="Path_2753" points="80.1453505 15.6293254 83.6464215 15.6293254 83.6464215 7.16429717 87.6561203 10.2678472 91.6920772 7.08404139 91.6920772 2.72478188 87.6279172 5.92326865 80.1395153 0"></polygon>
                                </g>
                                <polygon id="Path_2754" points="0 0.220440601 91.6969398 0.220440601 91.6969398 3.05092522 0 3.05092522"></polygon>
                            </g>
                        </g>
                    </g>
                </g>
            </g>
        </g>
    </g>
</svg>