<?xml version="1.0" encoding="UTF-8"?>
<svg width="25px" height="24px" viewBox="0 0 25 24" version="1.1" xmlns="http://www.w3.org/2000/svg" xmlns:xlink="http://www.w3.org/1999/xlink">
    <title>73CD6968-B754-48B5-844F-2DB4D1A7554D</title>
    <g id="Employer-Dashboard" stroke="none" stroke-width="1" fill="none" fill-rule="evenodd">
        <g id="Employer-Dashboard-Profile-" transform="translate(-640.000000, -403.000000)" fill="#082979" fill-rule="nonzero">
            <g id="unit-copy" transform="translate(300.000000, 197.000000)">
                <g id="Group-103" transform="translate(213.000000, 206.000000)">
                    <g id="noun-insta-3324511" transform="translate(127.441200, 0.000000)">
                        <path d="M15.5744159,0 L8.42558406,0 C6.19182213,0.00227957282 4.04991538,0.890656914 2.47016943,2.47016943 C0.890423483,4.04968195 0.00227595464,6.19164705 0,8.42558406 L0,15.5744159 C0.00227957282,17.8081779 0.890656914,19.9500846 2.47016943,21.5298306 C4.04968195,23.1095765 6.19164705,23.997724 8.42558406,24 L15.5744159,24 C17.8081779,23.9977204 19.9500846,23.1093431 21.5298306,21.5298306 C23.1095765,19.9503181 23.997724,17.8083529 24,15.5744159 L24,8.42558406 C23.9977204,6.19182213 23.1093431,4.04991538 21.5298306,2.47016943 C19.9503181,0.890423483 17.8083529,0.00227595464 15.5744159,0 L15.5744159,0 Z M12,17.5861264 C10.5184702,17.5861264 9.09763262,16.9975295 8.04987648,15.9498317 C7.00212033,14.902134 6.41358181,13.481238 6.41358181,11.9997082 C6.41358181,10.5181785 7.00217869,9.09734083 8.04987648,8.04958469 C9.09757426,7.00182854 10.5184702,6.41329002 12,6.41329002 C13.4815298,6.41329002 14.9023674,7.0018869 15.9501235,8.04958469 C16.9978797,9.09728247 17.5864182,10.5181785 17.5864182,11.9997082 C17.5843666,13.4807711 16.9950785,14.9002665 15.9478476,15.9474974 C14.9006166,16.9947283 13.4810629,17.5840255 12.0000584,17.5861264 L12,17.5861264 Z M19.1640049,6.67379929 C19.1177289,6.72167078 19.0664365,6.76452818 19.0108156,6.801457 C18.9540533,6.83701908 18.8941,6.86779232 18.8320949,6.89332387 C18.7716828,6.91976696 18.7083121,6.93868773 18.6431148,6.94940222 C18.5779174,6.9637635 18.5108993,6.97060245 18.4441029,6.96991849 C18.3093781,6.96832276 18.1762523,6.94233509 18.0508705,6.89332387 C17.9904585,6.86779232 17.9323341,6.83701792 17.8771626,6.801457 C17.8210843,6.76315969 17.7681969,6.72053222 17.7189605,6.67379929 C17.5288424,6.48026144 17.4223861,6.21993308 17.4228412,5.94864513 C17.4219294,5.88162702 17.4287681,5.81483067 17.4431299,5.74940572 C17.454072,5.68443597 17.4729928,5.62106522 17.4994359,5.56065322 C17.5249674,5.49842045 17.5557418,5.43869706 17.5913027,5.38193242 C17.6298282,5.32745015 17.6724551,5.27638648 17.7189605,5.22874317 C17.7681999,5.18178322 17.8210866,5.13915226 17.8771626,5.10108546 C17.9323289,5.06529578 17.9904585,5.03452254 18.0508705,5.00899099 C18.1137861,4.98323127 18.1787558,4.962715 18.2448635,4.9478962 C18.5788278,4.88269885 18.9235065,4.9880172 19.1639991,5.22874317 C19.2120987,5.27501916 19.254728,5.32631159 19.2916568,5.38193242 C19.329042,5.43869473 19.3614119,5.49842045 19.38877,5.56065322 C19.4127061,5.62174801 19.4316268,5.68511876 19.4448484,5.74940572 C19.456702,5.81528586 19.463541,5.88184878 19.4653679,5.94864513 C19.4660485,6.22105939 19.3575369,6.48207054 19.1639991,6.67379929 L19.1640049,6.67379929 Z M12,7.9451242 C10.924699,7.9451242 9.89339973,8.37232089 9.13317253,9.13282238 C8.37271189,9.89304958 7.94547435,10.9243488 7.94547435,11.9996499 C7.94547435,13.0749509 8.37267104,14.1062501 9.13317253,14.8664773 C9.89339973,15.626938 10.924699,16.0541755 12,16.0541755 C13.075301,16.0541755 14.1066003,15.6269788 14.8668275,14.8664773 C15.6272881,14.1062501 16.0545256,13.0749509 16.0545256,11.9996499 C16.0536139,10.9245823 15.626191,9.89398331 14.8659521,9.1337561 C14.1057132,8.3735289 13.0750676,7.94605793 12.0000584,7.9451242 L12,7.9451242 Z M11.5046414,10.5851149 C11.2112592,10.6876962 10.9568541,10.8789581 10.776511,11.1322193 C10.5964246,11.385714 10.4993114,11.6886727 10.4986286,11.9995915 C10.4986286,12.4226856 10.1557765,12.7655378 9.73268232,12.7655378 C9.30981578,12.7655378 8.96673605,12.4226856 8.96673605,11.9995915 C8.96741988,11.3710779 9.16323847,10.7583209 9.527292,10.2461143 C9.89157313,9.73366273 10.4058689,9.34728733 10.9992511,9.14005875 C11.3974964,9.00282452 11.832017,9.21323361 11.9710253,9.61102379 C12.1100803,10.008814 11.9017254,10.4441983 11.504618,10.585074 L11.5046414,10.5851149 Z" id="Shape"></path>
                    </g>
                </g>
            </g>
        </g>
    </g>
</svg>