<?xml version="1.0" encoding="UTF-8"?>
<svg width="188px" height="187px" viewBox="0 0 188 187" version="1.1" xmlns="http://www.w3.org/2000/svg" xmlns:xlink="http://www.w3.org/1999/xlink">
    <title>4A36A755-0FF6-4E67-8761-F0D74A2083D0</title>
    <g id="Homepage" stroke="none" stroke-width="1" fill="none" fill-rule="evenodd">
        <g transform="translate(-1188.000000, -1208.000000)" fill="#D01124" id="Group-41">
            <g transform="translate(-28.000000, 1117.000000)">
                <g id="Courses" transform="translate(28.000000, 0.000000)">
                    <path d="M1281.813,273.84 C1331.323,273.84 1371.453,233.71 1371.453,184.2 C1371.453,134.69 1331.323,94.56 1281.813,94.56 C1232.303,94.56 1192.173,134.69 1192.173,184.2 C1192.173,233.71 1232.303,273.84 1281.813,273.84 Z M1281.813,277.4 C1333.283,277.4 1375.013,235.67 1375.013,184.2 C1375.013,132.73 1333.283,91 1281.813,91 C1230.343,91 1188.613,132.73 1188.613,184.2 C1188.613,235.67 1230.343,277.4 1281.813,277.4 Z" id="Shape"></path>
                </g>
            </g>
        </g>
    </g>
</svg>