<?xml version="1.0" encoding="UTF-8"?>
<svg width="20px" height="20px" viewBox="0 0 20 20" version="1.1" xmlns="http://www.w3.org/2000/svg" xmlns:xlink="http://www.w3.org/1999/xlink">
    <title>ECE2BD49-75F8-4D3C-BC64-8EA9EA3906BD</title>
    <g id="DISCOVER-NEW-OPPORTUNITIES" stroke="none" stroke-width="1" fill="none" fill-rule="evenodd">
        <g id="04.Jobs_Watchlist" transform="translate(-482.000000, -515.000000)" fill="#E30013" fill-rule="nonzero">
            <g id="Knowledge-Centre_01" transform="translate(162.000000, 235.000000)">
                <path d="M337.273577,293.134392 C336.433636,292.659643 335.447617,292.550085 334.498119,292.842239 C333.877292,293.024835 333.292985,293.390027 332.854755,293.864776 L327.19428,290.797164 C327.19428,290.760645 327.19428,290.760645 327.19428,290.724126 C327.19428,290.651087 327.2308,290.578049 327.2308,290.54153 C327.2308,290.468491 327.267319,290.431972 327.267319,290.358934 C327.267319,290.249376 327.303838,290.103299 327.303838,289.993742 C327.303838,289.957223 327.303838,289.920704 327.303838,289.847665 C327.303838,289.738108 327.303838,289.665069 327.303838,289.555512 C327.303838,289.518992 327.303838,289.445954 327.267319,289.409435 C327.267319,289.336396 327.2308,289.226839 327.2308,289.153801 C327.2308,289.117281 327.2308,289.117281 327.2308,289.080762 L332.927793,286.086189 C333.366024,286.560938 333.913811,286.92613 334.534638,287.108726 C334.89983,287.218283 335.265022,287.291322 335.630213,287.291322 C336.21452,287.291322 336.798827,287.145245 337.310096,286.889611 C338.186557,286.45138 338.807383,285.684477 339.099536,284.734978 C339.39169,283.821999 339.318652,282.799461 338.843902,281.95952 C337.930922,280.17008 335.703252,279.476215 333.913811,280.425714 C332.416525,281.192617 331.686141,282.909019 332.051333,284.479344 L326.354339,287.437399 C326.31782,287.400879 326.31782,287.400879 326.281301,287.36436 C326.281301,287.36436 326.244782,287.327841 326.244782,287.327841 C326.135224,287.218283 326.025666,287.108726 325.916109,287.035687 C325.87959,286.999168 325.84307,286.999168 325.806551,286.962649 C325.696994,286.889611 325.587436,286.816572 325.441359,286.743534 C325.441359,286.743534 325.40484,286.707015 325.40484,286.707015 C325.003129,286.4879 324.564899,286.341823 324.126668,286.305304 C324.090149,286.305304 324.090149,286.305304 324.05363,286.305304 C323.980592,286.305304 323.907553,286.305304 323.834515,286.305304 C323.797996,286.305304 323.724957,286.305304 323.688438,286.305304 C323.651919,286.305304 323.578881,286.305304 323.542361,286.305304 C323.469323,286.305304 323.396285,286.305304 323.323246,286.305304 C323.286727,286.305304 323.286727,286.305304 323.250208,286.305304 C322.811978,286.341823 322.373747,286.4879 321.972036,286.707015 C321.898998,286.743534 321.82596,286.780053 321.752921,286.816572 C321.716402,286.853092 321.679883,286.853092 321.643364,286.889611 C321.570325,286.92613 321.533806,286.962649 321.497287,286.999168 C321.460768,287.035687 321.424248,287.072207 321.35121,287.108726 C321.314691,287.145245 321.278172,287.181764 321.205133,287.218283 C321.168614,287.254803 321.095576,287.291322 321.059057,287.327841 C321.022537,287.36436 320.986018,287.400879 320.949499,287.437399 C320.91298,287.473918 320.839941,287.546956 320.803422,287.583475 C320.766903,287.619995 320.766903,287.656514 320.730384,287.693033 C320.693865,287.766071 320.620826,287.80259 320.584307,287.875629 C320.584307,287.912148 320.547788,287.912148 320.547788,287.948667 C320.511269,288.021706 320.43823,288.094744 320.401711,288.204302 C320.182596,288.606013 320.036519,289.044243 320,289.482473 C320,289.518992 320,289.518992 320,289.555512 C320,289.62855 320,289.701588 320,289.774627 C320,289.811146 320,289.884184 320,289.920704 C320,289.957223 320,290.030261 320,290.06678 C320,290.139819 320,290.212857 320,290.285895 C320,290.322415 320,290.322415 320,290.358934 C320.036519,290.797164 320.182596,291.235394 320.401711,291.637105 C320.803422,292.404008 321.460768,293.024835 322.26419,293.316988 C322.300709,293.316988 322.337228,293.353507 322.410267,293.353507 C322.446786,293.353507 322.519824,293.390027 322.556343,293.390027 C322.592863,293.390027 322.665901,293.426546 322.70242,293.426546 C322.738939,293.426546 322.738939,293.426546 322.775458,293.463065 C322.921535,293.499584 323.031093,293.536103 323.17717,293.536103 C323.17717,293.536103 323.213689,293.536103 323.213689,293.536103 C323.359765,293.536103 323.505842,293.572623 323.651919,293.572623 C323.980592,293.572623 324.272745,293.536103 324.601418,293.463065 C324.601418,293.463065 324.637937,293.463065 324.637937,293.463065 C324.784014,293.426546 324.893571,293.390027 325.003129,293.316988 C325.039648,293.316988 325.076167,293.280469 325.112687,293.280469 C325.185725,293.24395 325.258763,293.207431 325.295283,293.207431 C325.331802,293.170911 325.368321,293.170911 325.40484,293.134392 C325.441359,293.097873 325.477879,293.097873 325.514398,293.061354 C325.623955,292.988315 325.733513,292.915277 325.806551,292.878758 C325.84307,292.842239 325.84307,292.842239 325.87959,292.80572 C325.989147,292.696162 326.098705,292.623124 326.208262,292.513566 C326.244782,292.477047 326.244782,292.477047 326.281301,292.440528 C326.281301,292.440528 326.281301,292.440528 326.281301,292.440528 L331.978294,295.47162 C331.576583,297.041946 332.270448,298.758348 333.767735,299.56177 C334.315523,299.853923 334.936349,300 335.520656,300 C336.798827,300 338.076999,299.306135 338.734345,298.101002 C339.209094,297.261061 339.318652,296.275043 339.026498,295.325544 C338.734345,294.376045 338.113518,293.609142 337.273577,293.134392 Z M325.039648,291.052798 C325.003129,291.089318 324.96661,291.125837 324.930091,291.162356 C324.893571,291.198875 324.820533,291.271914 324.784014,291.308433 C324.747495,291.344952 324.674456,291.381471 324.601418,291.41799 C324.272745,291.637105 323.871034,291.746663 323.469323,291.710144 C323.469323,291.710144 323.469323,291.710144 323.432804,291.710144 C323.359765,291.710144 323.286727,291.673625 323.213689,291.673625 C323.17717,291.673625 323.104131,291.673625 323.067612,291.637105 C322.958054,291.600586 322.885016,291.564067 322.811978,291.527548 C322.775458,291.527548 322.775458,291.527548 322.738939,291.491029 C322.519824,291.381471 322.337228,291.198875 322.191151,291.016279 C322.154632,290.97976 322.154632,290.943241 322.118113,290.906722 C322.045075,290.797164 321.972036,290.687606 321.935517,290.578049 C321.898998,290.505011 321.862479,290.431972 321.862479,290.358934 C321.82596,290.285895 321.82596,290.212857 321.82596,290.139819 C321.82596,290.103299 321.78944,290.030261 321.78944,289.993742 C321.78944,289.920704 321.78944,289.884184 321.78944,289.811146 C321.78944,289.738108 321.78944,289.701588 321.78944,289.62855 C321.78944,289.592031 321.78944,289.555512 321.82596,289.518992 C321.82596,289.445954 321.862479,289.372916 321.862479,289.299877 C321.862479,289.263358 321.898998,289.226839 321.898998,289.19032 C321.972036,289.007724 322.045075,288.861647 322.154632,288.71557 C322.154632,288.679051 322.191151,288.679051 322.191151,288.642532 C322.26419,288.569493 322.300709,288.496455 322.373747,288.459936 C322.373747,288.459936 322.410267,288.423417 322.410267,288.423417 C322.483305,288.350378 322.592863,288.313859 322.665901,288.240821 C322.70242,288.204302 322.738939,288.204302 322.775458,288.167782 C322.811978,288.167782 322.811978,288.131263 322.848497,288.131263 C322.921535,288.094744 322.958054,288.094744 323.031093,288.058225 C323.031093,288.058225 323.031093,288.058225 323.067612,288.058225 C323.213689,288.021706 323.396285,287.985186 323.542361,287.985186 C323.578881,287.985186 323.578881,287.985186 323.6154,287.985186 C323.688438,287.985186 323.724957,287.985186 323.797996,287.985186 C323.834515,287.985186 323.871034,287.985186 323.871034,287.985186 C323.944073,287.985186 323.980592,288.021706 324.05363,288.021706 C324.090149,288.021706 324.090149,288.021706 324.126668,288.058225 C324.236226,288.094744 324.309264,288.131263 324.418822,288.167782 C324.418822,288.167782 324.455341,288.167782 324.455341,288.204302 C324.52838,288.240821 324.601418,288.313859 324.674456,288.350378 C324.710976,288.386898 324.710976,288.386898 324.747495,288.423417 C324.820533,288.459936 324.857052,288.532974 324.893571,288.569493 C324.930091,288.606013 324.930091,288.606013 324.96661,288.642532 C325.039648,288.71557 325.076167,288.825128 325.149206,288.898166 C325.185725,289.007724 325.222244,289.117281 325.258763,289.19032 C325.258763,289.226839 325.258763,289.226839 325.295283,289.263358 C325.331802,289.372916 325.331802,289.482473 325.368321,289.555512 C325.368321,289.555512 325.368321,289.592031 325.368321,289.592031 C325.368321,289.701588 325.368321,289.811146 325.368321,289.884184 C325.368321,289.884184 325.368321,289.884184 325.368321,289.920704 C325.368321,290.030261 325.331802,290.139819 325.295283,290.249376 C325.295283,290.249376 325.295283,290.285895 325.295283,290.285895 C325.258763,290.431972 325.185725,290.54153 325.112687,290.651087 C325.149206,290.906722 325.112687,290.97976 325.039648,291.052798 Z M333.877292,283.091615 C334.023369,282.616865 334.352042,282.251674 334.790272,282.032558 C335.045906,281.886482 335.33806,281.813443 335.630213,281.813443 C336.287559,281.813443 336.944904,282.178635 337.237058,282.799461 C337.711807,283.675922 337.346615,284.808017 336.470155,285.246247 C336.031924,285.465362 335.557175,285.501881 335.082426,285.355805 C334.607676,285.209728 334.242484,284.881055 334.023369,284.442825 C333.804254,284.041114 333.731216,283.566364 333.877292,283.091615 Z M337.1275,297.224542 C337.1275,297.224542 337.1275,297.224542 337.1275,297.224542 C336.652751,298.101002 335.520656,298.429675 334.644195,297.954925 C333.767735,297.480176 333.439062,296.348081 333.913811,295.47162 C334.132927,295.03339 334.534638,294.741237 335.009387,294.59516 C335.191983,294.558641 335.33806,294.522121 335.520656,294.522121 C335.812809,294.522121 336.104963,294.59516 336.397116,294.741237 C336.835347,294.960352 337.1275,295.362063 337.273577,295.836812 C337.419654,296.311562 337.346615,296.786311 337.1275,297.224542 Z" id="Shape"></path>
            </g>
        </g>
    </g>
</svg>